<svg width="120" height="80" viewBox="0 0 120 80" fill="none" xmlns="http://www.w3.org/2000/svg">
<path d="M47.3043 9.43478C47.3043 6.98552 49.2899 5 51.7391 5H66.5217C68.971 5 70.9565 6.98552 70.9565 9.43478V11.6522C70.9565 14.1014 68.971 16.087 66.5217 16.087H51.7391C49.2899 16.087 47.3043 14.1014 47.3043 11.6522V9.43478Z" fill="#C4DBE3"/>
<path d="M47.3043 68.5652C47.3043 66.116 49.2899 64.1304 51.7391 64.1304H66.5217C68.971 64.1304 70.9565 66.116 70.9565 68.5652V70.7826C70.9565 73.2319 68.971 75.2174 66.5217 75.2174H51.7391C49.2899 75.2174 47.3043 73.2319 47.3043 70.7826V68.5652Z" fill="#C4DBE3"/>
<path d="M30.3043 24.9565C30.3043 20.8744 33.6135 17.5652 37.6957 17.5652H80.5652C84.6473 17.5652 87.9565 20.8744 87.9565 24.9565V55.2609C87.9565 59.343 84.6473 62.6522 80.5652 62.6522H37.6957C33.6135 62.6522 30.3043 59.343 30.3043 55.2609V24.9565Z" fill="white"/>
<path d="M21.4348 53.7826C18.9855 53.7826 17 51.7971 17 49.3478V34.5652C17 32.116 18.9855 30.1304 21.4348 30.1304H23.6522C26.1014 30.1304 28.087 32.116 28.087 34.5652V49.3478C28.087 51.7971 26.1014 53.7826 23.6522 53.7826H21.4348Z" fill="#C4DBE3"/>
<path d="M95.3478 53.7826C92.8986 53.7826 90.913 51.7971 90.913 49.3478V34.5652C90.913 32.116 92.8986 30.1304 95.3478 30.1304H97.5652C100.014 30.1304 102 32.116 102 34.5652V49.3478C102 51.7971 100.014 53.7826 97.5652 53.7826H95.3478Z" fill="#C4DBE3"/>
<path d="M51.7393 64.6309H66.5215C68.6946 64.6309 70.4561 66.3923 70.4561 68.5654V70.7822C70.4561 72.9553 68.6946 74.7178 66.5215 74.7178H51.7393C49.5661 74.7178 47.8047 72.9553 47.8047 70.7822V68.5654C47.8047 66.3923 49.5661 64.6309 51.7393 64.6309ZM37.6953 18.0654H80.5654C84.3711 18.0655 87.4558 21.1504 87.4561 24.9561V55.2607C87.4561 59.0666 84.3713 62.1522 80.5654 62.1523H37.6953C33.8895 62.1522 30.8047 59.0666 30.8047 55.2607V24.9561C30.8049 21.1504 33.8897 18.0656 37.6953 18.0654ZM21.4346 30.6309H23.6523C25.8254 30.631 27.5869 32.3924 27.5869 34.5654V49.3477C27.5869 51.5207 25.8254 53.2821 23.6523 53.2822H21.4346C19.2615 53.2821 17.5 51.5207 17.5 49.3477V34.5654L17.5049 34.3623C17.6105 32.2835 19.3296 30.631 21.4346 30.6309ZM95.3477 30.6309H97.5654C99.7385 30.631 101.5 32.3924 101.5 34.5654V49.3477C101.5 51.5207 99.7385 53.2821 97.5654 53.2822H95.3477C93.1746 53.2821 91.4131 51.5207 91.4131 49.3477V34.5654C91.4131 32.3924 93.1746 30.631 95.3477 30.6309ZM51.7393 5.5H66.5215C68.6945 5.5 70.4559 7.26155 70.4561 9.43457V11.6523C70.456 13.8254 68.6945 15.5869 66.5215 15.5869H51.7393C49.5662 15.5869 47.8048 13.8254 47.8047 11.6523V9.43457C47.8048 7.26155 49.5662 5.5 51.7393 5.5Z" stroke="#EFF4FA"/>
</svg>
