<svg width="120" height="80" viewBox="0 0 120 80" fill="none" xmlns="http://www.w3.org/2000/svg">
<path d="M18.0882 11.1684C18.0882 8.86627 19.5894 7 21.4412 7H32.6176C34.4694 7 35.9706 8.86627 35.9706 11.1684V13.2526C35.9706 15.5548 34.4694 17.4211 32.6176 17.4211H21.4412C19.5894 17.4211 18.0882 15.5548 18.0882 13.2526V11.1684Z" fill="#FFE1BA"/>
<path d="M39.3235 11.1684C39.3235 8.86627 40.8247 7 42.6765 7H53.8529C55.7047 7 57.2059 8.86627 57.2059 11.1684V13.2526C57.2059 15.5548 55.7047 17.4211 53.8529 17.4211H42.6765C40.8247 17.4211 39.3235 15.5548 39.3235 13.2526V11.1684Z" fill="#FFE1BA"/>
<path d="M60.5588 11.1684C60.5588 8.86627 62.06 7 63.9118 7H75.0882C76.94 7 78.4412 8.86627 78.4412 11.1684V13.2526C78.4412 15.5548 76.94 17.4211 75.0882 17.4211H63.9118C62.06 17.4211 60.5588 15.5548 60.5588 13.2526V11.1684Z" fill="#FFE1BA"/>
<path d="M81.7941 11.1684C81.7941 8.86627 83.2953 7 85.1471 7H96.3235C98.1753 7 99.6765 8.86627 99.6765 11.1684V13.2526C99.6765 15.5548 98.1753 17.4211 96.3235 17.4211H85.1471C83.2953 17.4211 81.7941 15.5548 81.7941 13.2526V11.1684Z" fill="#FFE1BA"/>
<path d="M18.0882 66.7474C18.0882 64.4452 19.5894 62.5789 21.4412 62.5789H32.6176C34.4694 62.5789 35.9706 64.4452 35.9706 66.7474V68.8316C35.9706 71.1337 34.4694 73 32.6176 73H21.4412C19.5894 73 18.0882 71.1337 18.0882 68.8316V66.7474Z" fill="#FFE1BA"/>
<path d="M39.3235 66.7474C39.3235 64.4452 40.8247 62.5789 42.6765 62.5789H53.8529C55.7047 62.5789 57.2059 64.4452 57.2059 66.7474V68.8316C57.2059 71.1337 55.7047 73 53.8529 73H42.6765C40.8247 73 39.3235 71.1337 39.3235 68.8316V66.7474Z" fill="#FFE1BA"/>
<path d="M60.5588 66.7474C60.5588 64.4452 62.06 62.5789 63.9118 62.5789H75.0882C76.94 62.5789 78.4412 64.4452 78.4412 66.7474V68.8316C78.4412 71.1337 76.94 73 75.0882 73H63.9118C62.06 73 60.5588 71.1337 60.5588 68.8316V66.7474Z" fill="#FFE1BA"/>
<path d="M81.7941 66.7474C81.7941 64.4452 83.2953 62.5789 85.1471 62.5789H96.3235C98.1753 62.5789 99.6765 64.4452 99.6765 66.7474V68.8316C99.6765 71.1337 98.1753 73 96.3235 73H85.1471C83.2953 73 81.7941 71.1337 81.7941 68.8316V66.7474Z" fill="#FFE1BA"/>
<path d="M8.02941 51.1158C9.88119 51.1158 11.3824 49.2495 11.3824 46.9474V33.0526C11.3824 30.7505 9.88119 28.8842 8.02941 28.8842H6.35294C4.50116 28.8842 3 30.7505 3 33.0526V46.9474C3 49.2495 4.50116 51.1158 6.35294 51.1158H8.02941Z" fill="#FFE1BA"/>
<path d="M13.0588 22.9789C13.0588 20.6768 14.56 18.8105 16.4118 18.8105H103.588C105.44 18.8105 106.941 20.6768 106.941 22.9789V57.0211C106.941 59.3232 105.44 61.1895 103.588 61.1895H16.4118C14.56 61.1895 13.0588 59.3232 13.0588 57.0211V22.9789Z" fill="white"/>
<path d="M113.647 51.1158C115.499 51.1158 117 49.2495 117 46.9474V33.0526C117 30.7505 115.499 28.8842 113.647 28.8842H111.971C110.119 28.8842 108.618 30.7505 108.618 33.0526V46.9474C108.618 49.2495 110.119 51.1158 111.971 51.1158H113.647Z" fill="#FFE1BA"/>
<path d="M21.4414 63.0791H32.6172C34.0966 63.0791 35.4706 64.6141 35.4707 66.7471V68.832C35.4705 70.9649 34.0966 72.5 32.6172 72.5H21.4414C19.962 72.5 18.5881 70.9649 18.5879 68.832V66.7471C18.588 64.6141 19.962 63.0791 21.4414 63.0791ZM42.6768 63.0791H53.8525C55.332 63.0791 56.7059 64.6141 56.7061 66.7471V68.832C56.7059 70.9649 55.3319 72.5 53.8525 72.5H42.6768C41.1974 72.5 39.8234 70.9649 39.8232 68.832V66.7471C39.8234 64.6141 41.1973 63.0791 42.6768 63.0791ZM63.9121 63.0791H75.0879C76.5673 63.0791 77.9413 64.6141 77.9414 66.7471V68.832C77.9412 70.9649 76.5673 72.5 75.0879 72.5H63.9121C62.4327 72.5 61.0588 70.9649 61.0586 68.832V66.7471C61.0587 64.6141 62.4327 63.0791 63.9121 63.0791ZM85.1475 63.0791H96.3232C97.8027 63.0791 99.1766 64.6141 99.1768 66.7471V68.832C99.1766 70.9649 97.8026 72.5 96.3232 72.5H85.1475C83.6681 72.5 82.2941 70.9649 82.2939 68.832V66.7471C82.2941 64.6141 83.668 63.0791 85.1475 63.0791ZM16.4121 19.3105H103.588C105.067 19.3105 106.441 20.8456 106.441 22.9785V57.0215C106.441 59.1544 105.067 60.6895 103.588 60.6895H16.4121C14.9327 60.6895 13.5588 59.1544 13.5586 57.0215V22.9785C13.5588 20.8456 14.9327 19.3105 16.4121 19.3105ZM6.35254 29.3838H8.0293C9.5088 29.3838 10.8828 30.9196 10.8828 33.0527V46.9473C10.8828 49.0804 9.5088 50.6162 8.0293 50.6162H6.35254C4.87319 50.6159 3.5 49.0802 3.5 46.9473V33.0527L3.50391 32.8545C3.58583 30.8253 4.91941 29.3841 6.35254 29.3838ZM111.971 29.3838H113.647C115.127 29.3841 116.5 30.9198 116.5 33.0527V46.9473C116.5 49.0802 115.127 50.6159 113.647 50.6162H111.971C110.491 50.6162 109.117 49.0804 109.117 46.9473V33.0527C109.117 30.9196 110.491 29.3838 111.971 29.3838ZM21.4414 7.5H32.6172C34.0966 7.5 35.4705 9.03507 35.4707 11.168V13.2529C35.4706 15.3859 34.0966 16.9209 32.6172 16.9209H21.4414C19.962 16.9209 18.588 15.3859 18.5879 13.2529V11.168C18.5881 9.10178 19.8772 7.59702 21.3027 7.50488L21.4414 7.5ZM42.6768 7.5H53.8525C55.3319 7.5 56.7059 9.03507 56.7061 11.168V13.2529C56.7059 15.3859 55.332 16.9209 53.8525 16.9209H42.6768C41.1973 16.9209 39.8234 15.3859 39.8232 13.2529V11.168C39.8234 9.03507 41.1974 7.5 42.6768 7.5ZM63.9121 7.5H75.0879C76.5673 7.5 77.9412 9.03507 77.9414 11.168V13.2529C77.9413 15.3859 76.5673 16.9209 75.0879 16.9209H63.9121C62.4327 16.9209 61.0587 15.3859 61.0586 13.2529V11.168C61.0588 9.03507 62.4327 7.5 63.9121 7.5ZM85.1475 7.5H96.3232C97.8026 7.5 99.1766 9.03507 99.1768 11.168V13.2529C99.1766 15.3859 97.8027 16.9209 96.3232 16.9209H85.1475C83.668 16.9209 82.2941 15.3859 82.2939 13.2529V11.168C82.2941 9.1017 83.5832 7.59691 85.0088 7.50488L85.1475 7.5Z" stroke="#EFF4FA"/>
</svg>
