<svg width="129" height="75" viewBox="0 0 129 75" fill="none" xmlns="http://www.w3.org/2000/svg">
<path d="M17.0735 4.73684C17.0735 2.12076 18.7722 0 20.8676 0H33.5147C35.6101 0 37.3088 2.12076 37.3088 4.73684V7.10526C37.3088 9.72135 35.6101 11.8421 33.5147 11.8421H20.8676C18.7722 11.8421 17.0735 9.72135 17.0735 7.10526V4.73684Z" fill="#FFE1BA"/>
<path d="M41.1029 4.73684C41.1029 2.12076 42.8016 0 44.8971 0H57.5441C59.6396 0 61.3382 2.12076 61.3382 4.73684V7.10526C61.3382 9.72135 59.6396 11.8421 57.5441 11.8421H44.8971C42.8016 11.8421 41.1029 9.72135 41.1029 7.10526V4.73684Z" fill="#FFE1BA"/>
<path d="M65.1324 4.73684C65.1324 2.12076 66.831 0 68.9265 0H81.5735C83.669 0 85.3676 2.12076 85.3676 4.73684V7.10526C85.3676 9.72135 83.669 11.8421 81.5735 11.8421H68.9265C66.831 11.8421 65.1324 9.72135 65.1324 7.10526V4.73684Z" fill="#FFE1BA"/>
<path d="M89.1618 4.73684C89.1618 2.12076 90.8605 0 92.9559 0H105.603C107.698 0 109.397 2.12076 109.397 4.73684V7.10526C109.397 9.72135 107.698 11.8421 105.603 11.8421H92.9559C90.8605 11.8421 89.1618 9.72135 89.1618 7.10526V4.73684Z" fill="#FFE1BA"/>
<path d="M17.0735 67.8947C17.0735 65.2787 18.7722 63.1579 20.8676 63.1579H33.5147C35.6101 63.1579 37.3088 65.2787 37.3088 67.8947V70.2632C37.3088 72.8792 35.6101 75 33.5147 75H20.8676C18.7722 75 17.0735 72.8792 17.0735 70.2632V67.8947Z" fill="#FFE1BA"/>
<path d="M41.1029 67.8947C41.1029 65.2787 42.8016 63.1579 44.8971 63.1579H57.5441C59.6396 63.1579 61.3382 65.2787 61.3382 67.8947V70.2632C61.3382 72.8792 59.6396 75 57.5441 75H44.8971C42.8016 75 41.1029 72.8792 41.1029 70.2632V67.8947Z" fill="#FFE1BA"/>
<path d="M65.1324 67.8947C65.1324 65.2787 66.831 63.1579 68.9265 63.1579H81.5735C83.669 63.1579 85.3676 65.2787 85.3676 67.8947V70.2632C85.3676 72.8792 83.669 75 81.5735 75H68.9265C66.831 75 65.1324 72.8792 65.1324 70.2632V67.8947Z" fill="#FFE1BA"/>
<path d="M89.1618 67.8947C89.1618 65.2787 90.8605 63.1579 92.9559 63.1579H105.603C107.698 63.1579 109.397 65.2787 109.397 67.8947V70.2632C109.397 72.8792 107.698 75 105.603 75H92.9559C90.8605 75 89.1618 72.8792 89.1618 70.2632V67.8947Z" fill="#FFE1BA"/>
<path d="M5.69118 50.1316C7.78661 50.1316 9.48529 48.0108 9.48529 45.3947V29.6053C9.48529 26.9892 7.78661 24.8684 5.69118 24.8684H3.79412C1.69868 24.8684 0 26.9892 0 29.6053V45.3947C0 48.0108 1.69868 50.1316 3.79412 50.1316H5.69118Z" fill="#FFE1BA"/>
<path d="M11.3824 18.1579C11.3824 15.5418 13.081 13.4211 15.1765 13.4211H113.824C115.919 13.4211 117.618 15.5418 117.618 18.1579V56.8421C117.618 59.4582 115.919 61.5789 113.824 61.5789H15.1765C13.081 61.5789 11.3824 59.4582 11.3824 56.8421V18.1579Z" fill="white"/>
<path d="M125.206 50.1316C127.301 50.1316 129 48.0108 129 45.3947V29.6053C129 26.9892 127.301 24.8684 125.206 24.8684H123.309C121.213 24.8684 119.515 26.9892 119.515 29.6053V45.3947C119.515 48.0108 121.213 50.1316 123.309 50.1316H125.206Z" fill="#FFE1BA"/>
<path d="M20.8672 63.6582H33.5146C35.236 63.6582 36.8085 65.4454 36.8086 67.8945V70.2627C36.8086 72.7119 35.2361 74.5 33.5146 74.5H20.8672C19.1459 74.4997 17.5732 72.7117 17.5732 70.2627V67.8945C17.5733 65.4457 19.146 63.6585 20.8672 63.6582ZM44.8975 63.6582H57.5439C59.2653 63.6582 60.8378 65.4454 60.8379 67.8945V70.2627C60.8379 72.7119 59.2654 74.5 57.5439 74.5H44.8975C43.176 74.5 41.6025 72.7119 41.6025 70.2627V67.8945C41.6026 65.4454 43.1761 63.6582 44.8975 63.6582ZM68.9268 63.6582H81.5732C83.2946 63.6582 84.8671 65.4454 84.8672 67.8945V70.2627C84.8672 72.7119 83.2947 74.5 81.5732 74.5H68.9268C67.2053 74.5 65.6328 72.7119 65.6328 70.2627V67.8945C65.6329 65.4454 67.2054 63.6582 68.9268 63.6582ZM92.9561 63.6582H105.603C107.324 63.6582 108.897 65.4454 108.897 67.8945V70.2627C108.897 72.7119 107.324 74.5 105.603 74.5H92.9561C91.2346 74.5 89.6621 72.7119 89.6621 70.2627V67.8945C89.6622 65.4454 91.2347 63.6582 92.9561 63.6582ZM15.1768 13.9209H113.823C115.545 13.9209 117.117 15.709 117.117 18.1582V56.8418C117.117 59.291 115.545 61.0791 113.823 61.0791H15.1768C13.4553 61.0791 11.8828 59.291 11.8828 56.8418V18.1582C11.8828 15.709 13.4553 13.9209 15.1768 13.9209ZM3.79395 25.3682H5.69141C7.41276 25.3683 8.98535 27.1564 8.98535 29.6055V45.3945C8.98535 47.8436 7.41276 49.6317 5.69141 49.6318H3.79395C2.07257 49.6317 0.5 47.8437 0.5 45.3945V29.6055C0.5 27.1563 2.07257 25.3683 3.79395 25.3682ZM123.309 25.3682H125.206C126.927 25.3683 128.5 27.1563 128.5 29.6055V45.3945C128.5 47.8437 126.927 49.6317 125.206 49.6318H123.309C121.587 49.6317 120.015 47.8436 120.015 45.3945V29.6055C120.015 27.1564 121.587 25.3683 123.309 25.3682ZM20.8672 0.5H33.5146C35.2361 0.5 36.8086 2.2881 36.8086 4.7373V7.10547C36.8085 9.55457 35.236 11.3418 33.5146 11.3418H20.8672C19.146 11.3415 17.5733 9.55435 17.5732 7.10547V4.7373C17.5732 2.28832 19.1459 0.500318 20.8672 0.5ZM44.8975 0.5H57.5439C59.2654 0.5 60.8379 2.2881 60.8379 4.7373V7.10547C60.8378 9.55457 59.2653 11.3418 57.5439 11.3418H44.8975C43.1761 11.3418 41.6026 9.55457 41.6025 7.10547V4.7373C41.6025 2.2881 43.176 0.5 44.8975 0.5ZM68.9268 0.5H81.5732C83.2947 0.5 84.8672 2.2881 84.8672 4.7373V7.10547C84.8671 9.55457 83.2946 11.3418 81.5732 11.3418H68.9268C67.2054 11.3418 65.6329 9.55457 65.6328 7.10547V4.7373C65.6328 2.2881 67.2053 0.5 68.9268 0.5ZM92.9561 0.5H105.603C107.324 0.5 108.897 2.2881 108.897 4.7373V7.10547C108.897 9.55457 107.324 11.3418 105.603 11.3418H92.9561C91.2347 11.3418 89.6622 9.55457 89.6621 7.10547V4.7373C89.6621 2.2881 91.2346 0.5 92.9561 0.5Z" stroke="#EFF4FA"/>
</svg>
