<svg width="180" height="80" viewBox="0 0 180 80" fill="none" xmlns="http://www.w3.org/2000/svg">
<path d="M41.3382 13.7895C41.3382 11.6966 43.0633 10 45.1912 10H58.0343C60.1622 10 61.8873 11.6966 61.8873 13.7895V15.6842C61.8873 17.7771 60.1622 19.4737 58.0343 19.4737H45.1912C43.0633 19.4737 41.3382 17.7771 41.3382 15.6842V13.7895Z" fill="#C7AFDD"/>
<path d="M65.7402 13.7895C65.7402 11.6966 67.4652 10 69.5931 10H82.4363C84.5642 10 86.2892 11.6966 86.2892 13.7895V15.6842C86.2892 17.7771 84.5642 19.4737 82.4363 19.4737H69.5931C67.4652 19.4737 65.7402 17.7771 65.7402 15.6842V13.7895Z" fill="#C7AFDD"/>
<path d="M90.1422 13.7895C90.1422 11.6966 91.8672 10 93.9951 10H106.838C108.966 10 110.691 11.6966 110.691 13.7895V15.6842C110.691 17.7771 108.966 19.4737 106.838 19.4737H93.9951C91.8672 19.4737 90.1422 17.7771 90.1422 15.6842V13.7895Z" fill="#C7AFDD"/>
<path d="M114.544 13.7895C114.544 11.6966 116.269 10 118.397 10H131.24C133.368 10 135.093 11.6966 135.093 13.7895V15.6842C135.093 17.7771 133.368 19.4737 131.24 19.4737H118.397C116.269 19.4737 114.544 17.7771 114.544 15.6842V13.7895Z" fill="#C7AFDD"/>
<path d="M41.3382 64.3158C41.3382 62.2229 43.0633 60.5263 45.1912 60.5263H58.0343C60.1622 60.5263 61.8873 62.2229 61.8873 64.3158V66.2105C61.8873 68.3034 60.1622 70 58.0343 70H45.1912C43.0633 70 41.3382 68.3034 41.3382 66.2105V64.3158Z" fill="#C7AFDD"/>
<path d="M65.7402 64.3158C65.7402 62.2229 67.4652 60.5263 69.5931 60.5263H82.4363C84.5642 60.5263 86.2892 62.2229 86.2892 64.3158V66.2105C86.2892 68.3034 84.5642 70 82.4363 70H69.5931C67.4652 70 65.7402 68.3034 65.7402 66.2105V64.3158Z" fill="#C7AFDD"/>
<path d="M90.1422 64.3158C90.1422 62.2229 91.8672 60.5263 93.9951 60.5263H106.838C108.966 60.5263 110.691 62.2229 110.691 64.3158V66.2105C110.691 68.3034 108.966 70 106.838 70H93.9951C91.8672 70 90.1422 68.3034 90.1422 66.2105V64.3158Z" fill="#C7AFDD"/>
<path d="M114.544 64.3158C114.544 62.2229 116.269 60.5263 118.397 60.5263H131.24C133.368 60.5263 135.093 62.2229 135.093 64.3158V66.2105C135.093 68.3034 133.368 70 131.24 70H118.397C116.269 70 114.544 68.3034 114.544 66.2105V64.3158Z" fill="#C7AFDD"/>
<path d="M29.7794 50.1053C31.9073 50.1053 33.6324 48.4087 33.6324 46.3158V33.6842C33.6324 31.5913 31.9073 29.8947 29.7794 29.8947H27.8529C25.725 29.8947 24 31.5913 24 33.6842V46.3158C24 48.4087 25.725 50.1053 27.8529 50.1053H29.7794Z" fill="#C7AFDD"/>
<path d="M35.5588 24.5263C35.5588 22.4334 37.2838 20.7368 39.4118 20.7368H139.588C141.716 20.7368 143.441 22.4334 143.441 24.5263V55.4737C143.441 57.5666 141.716 59.2632 139.588 59.2632H39.4118C37.2838 59.2632 35.5588 57.5666 35.5588 55.4737V24.5263Z" fill="white"/>
<path d="M151.147 50.1053C153.275 50.1053 155 48.4087 155 46.3158V33.6842C155 31.5913 153.275 29.8947 151.147 29.8947H149.221C147.093 29.8947 145.368 31.5913 145.368 33.6842V46.3158C145.368 48.4087 147.093 50.1053 149.221 50.1053H151.147Z" fill="#C7AFDD"/>
<path d="M45.1914 61.0264H58.0342C59.8937 61.0264 61.3875 62.5067 61.3877 64.3154V66.2109C61.3875 68.0197 59.8937 69.5 58.0342 69.5H45.1914C43.3319 69.5 41.8381 68.0197 41.8379 66.2109V64.3154C41.8381 62.5067 43.3319 61.0264 45.1914 61.0264ZM69.5928 61.0264H82.4365C84.2959 61.0265 85.7889 62.5067 85.7891 64.3154V66.2109C85.7888 68.0196 84.2959 69.4999 82.4365 69.5H69.5928C67.7334 69.4998 66.2405 68.0196 66.2402 66.2109V64.3154C66.2404 62.5068 67.7334 61.0266 69.5928 61.0264ZM93.9951 61.0264H106.838C108.697 61.0264 110.191 62.5067 110.191 64.3154V66.2109C110.191 68.0197 108.697 69.5 106.838 69.5H93.9951C92.1356 69.5 90.6428 68.0197 90.6426 66.2109V64.3154C90.6428 62.5067 92.1356 61.0264 93.9951 61.0264ZM118.397 61.0264H131.24C133.1 61.0264 134.593 62.5067 134.593 64.3154V66.2109C134.593 68.0197 133.1 69.5 131.24 69.5H118.397C116.538 69.5 115.044 68.0197 115.044 66.2109V64.3154C115.044 62.5067 116.538 61.0264 118.397 61.0264ZM39.4121 21.2373H139.588C141.448 21.2373 142.941 22.7174 142.941 24.5264V55.4736C142.941 57.2826 141.448 58.7627 139.588 58.7627H39.4121C37.5525 58.7627 36.0586 57.2826 36.0586 55.4736V24.5264C36.0586 22.7174 37.5525 21.2373 39.4121 21.2373ZM27.8525 30.3945H29.7793C31.6389 30.3945 33.1328 31.8756 33.1328 33.6846V46.3154C33.1328 48.1244 31.6389 49.6055 29.7793 49.6055H27.8525C25.9931 49.6053 24.5 48.1242 24.5 46.3154V33.6846C24.5 31.8758 25.9931 30.3947 27.8525 30.3945ZM149.221 30.3945H151.147C153.007 30.3947 154.5 31.8758 154.5 33.6846V46.3154C154.5 48.1242 153.007 49.6053 151.147 49.6055H149.221C147.361 49.6055 145.867 48.1244 145.867 46.3154V33.6846C145.867 31.8756 147.361 30.3945 149.221 30.3945ZM45.1914 10.5H58.0342C59.8937 10.5 61.3875 11.9803 61.3877 13.7891V15.6846C61.3875 17.4933 59.8937 18.9736 58.0342 18.9736H45.1914C43.3319 18.9736 41.8381 17.4933 41.8379 15.6846V13.7891C41.8381 11.9803 43.3319 10.5 45.1914 10.5ZM69.5928 10.5H82.4365C84.2959 10.5001 85.7888 11.9804 85.7891 13.7891V15.6846C85.7889 17.4933 84.2959 18.9735 82.4365 18.9736H69.5928C67.7334 18.9734 66.2404 17.4932 66.2402 15.6846V13.7891C66.2405 12.0368 67.6418 10.5924 69.4199 10.5039L69.5928 10.5ZM93.9951 10.5H106.838C108.697 10.5 110.191 11.9803 110.191 13.7891V15.6846C110.191 17.4933 108.697 18.9736 106.838 18.9736H93.9951C92.1356 18.9736 90.6428 17.4933 90.6426 15.6846V13.7891C90.6428 11.9803 92.1356 10.5 93.9951 10.5ZM118.397 10.5H131.24C133.1 10.5 134.593 11.9803 134.593 13.7891V15.6846C134.593 17.4933 133.1 18.9736 131.24 18.9736H118.397C116.538 18.9736 115.044 17.4933 115.044 15.6846V13.7891C115.044 12.0369 116.446 10.5925 118.224 10.5039L118.397 10.5Z" stroke="#EFF4FA"/>
</svg>
