<svg width="20" height="20" viewBox="0 0 20 20" fill="none" xmlns="http://www.w3.org/2000/svg">
<path fill-rule="evenodd" clip-rule="evenodd" d="M3.3335 5.00065C2.87326 5.00065 2.50016 5.37375 2.50016 5.83398V14.1673C2.50016 14.6276 2.87326 15.0007 3.3335 15.0007H16.6668C17.1271 15.0007 17.5002 14.6276 17.5002 14.1673V5.83398C17.5002 5.37375 17.1271 5.00065 16.6668 5.00065H3.3335ZM0.833496 5.83398C0.833496 4.45327 1.95278 3.33398 3.3335 3.33398H16.6668C18.0475 3.33398 19.1668 4.45327 19.1668 5.83398V14.1673C19.1668 15.548 18.0475 16.6673 16.6668 16.6673H3.3335C1.95278 16.6673 0.833496 15.548 0.833496 14.1673V5.83398Z" fill="#0F172A"/>
<path fill-rule="evenodd" clip-rule="evenodd" d="M0.833496 8.33333C0.833496 7.8731 1.20659 7.5 1.66683 7.5H18.3335C18.7937 7.5 19.1668 7.8731 19.1668 8.33333C19.1668 8.79357 18.7937 9.16667 18.3335 9.16667H1.66683C1.20659 9.16667 0.833496 8.79357 0.833496 8.33333Z" fill="#0D76E1"/>
</svg>
