<svg width="20" height="20" viewBox="0 0 20 20" fill="none" xmlns="http://www.w3.org/2000/svg">
<g clip-path="url(#clip0_2024_52104)">
<path fill-rule="evenodd" clip-rule="evenodd" d="M10 2.50456C9.58034 2.50456 9.16743 2.6102 8.79934 2.81174C8.43125 3.01329 8.11982 3.30425 7.89375 3.65782C7.70491 3.95316 7.35142 4.09874 7.00936 4.02205C6.59863 3.92997 6.1713 3.94308 5.76699 4.06017C5.36268 4.17727 4.99448 4.39455 4.69653 4.69188C4.39858 4.9892 4.18052 5.35695 4.06258 5.76101C3.94464 6.16508 3.93063 6.59238 4.02186 7.0033C4.098 7.34629 3.95085 7.70019 3.65397 7.88807C3.29769 8.11354 3.00423 8.42546 2.80087 8.79481C2.59752 9.16416 2.49089 9.57894 2.49089 10.0006C2.49089 10.4222 2.59752 10.837 2.80087 11.2063C3.00423 11.5757 3.29769 11.8876 3.65397 12.1131C3.95085 12.301 4.098 12.6549 4.02186 12.9978C3.93063 13.4088 3.94464 13.8361 4.06258 14.2401C4.18052 14.6442 4.39858 15.0119 4.69653 15.3093C4.99448 15.6066 5.36268 15.8239 5.76699 15.941C6.1713 16.0581 6.59863 16.0712 7.00936 15.9791C7.35211 15.9022 7.70625 16.0486 7.89479 16.345C8.12056 16.6999 8.43224 16.9921 8.80096 17.1945C9.16968 17.397 9.58352 17.5031 10.0042 17.5031C10.4248 17.5031 10.8386 17.397 11.2074 17.1945C11.5761 16.9921 11.8878 16.6999 12.1135 16.345C12.3017 16.0491 12.655 15.9027 12.9973 15.9787C13.4082 16.0699 13.8355 16.0559 14.2396 15.938C14.6436 15.82 15.0114 15.602 15.3087 15.304C15.606 15.0061 15.8233 14.6379 15.9404 14.2336C16.0575 13.8293 16.0706 13.4019 15.9785 12.9912C15.9018 12.6491 16.0474 12.2957 16.3427 12.1068C16.6963 11.8808 16.9873 11.5693 17.1888 11.2012C17.3904 10.8331 17.496 10.4202 17.496 10.0006C17.496 9.58091 17.3904 9.16801 17.1888 8.79991C16.9873 8.43182 16.6963 8.12039 16.3427 7.89432C16.0473 7.70538 15.9017 7.35164 15.9786 7.00944C16.0711 6.59808 16.0581 6.17002 15.9407 5.76507C15.8233 5.36011 15.6054 4.99142 15.3073 4.69329C15.0091 4.39515 14.6405 4.17726 14.2355 4.05989C13.8305 3.94251 13.4025 3.92946 12.9911 4.02194C12.6489 4.09888 12.2952 3.95331 12.1062 3.65782C11.8802 3.30425 11.5687 3.01329 11.2007 2.81174C10.8326 2.6102 10.4197 2.50456 10 2.50456ZM7.9989 1.34987C8.61239 1.01396 9.30057 0.837891 10 0.837891C10.6994 0.837891 11.3876 1.01396 12.0011 1.34987C12.4504 1.59587 12.849 1.92179 13.1782 2.31008C13.6886 2.26566 14.2044 2.3156 14.6995 2.45911C15.3744 2.65474 15.9889 3.01789 16.4858 3.51478C16.9827 4.01166 17.3458 4.62615 17.5415 5.30107C17.685 5.79618 17.7349 6.31201 17.6905 6.82238C18.0788 7.15157 18.4047 7.5502 18.6507 7.99948C18.9866 8.61296 19.1627 9.30114 19.1627 10.0006C19.1627 10.7 18.9866 11.3882 18.6507 12.0017C18.4046 12.451 18.0786 12.8497 17.6902 13.179C17.7343 13.6883 17.6844 14.2031 17.5413 14.6972C17.3461 15.3711 16.984 15.9847 16.4884 16.4813C15.9929 16.9779 15.38 17.3413 14.7065 17.5379C14.2128 17.682 13.6981 17.733 13.1887 17.69C12.8594 18.0804 12.46 18.4081 12.0095 18.6555C11.395 18.9929 10.7052 19.1698 10.0042 19.1698C9.3031 19.1698 8.61336 18.9929 7.99882 18.6555C7.54868 18.4083 7.14954 18.0809 6.82032 17.6909C6.31139 17.7348 5.79707 17.6848 5.30335 17.5418C4.6295 17.3467 4.01583 16.9846 3.51925 16.489C3.02267 15.9935 2.65924 15.3806 2.46268 14.7071C2.31867 14.2137 2.26763 13.6996 2.31042 13.1906C1.91848 12.8613 1.58932 12.4614 1.34087 12.0102C1.00195 11.3946 0.824219 10.7033 0.824219 10.0006C0.824219 9.29785 1.00195 8.60655 1.34087 7.99097C1.58932 7.53971 1.91848 7.13989 2.31042 6.81055C2.26763 6.30156 2.31867 5.7874 2.46268 5.29402C2.65924 4.62058 3.02267 4.00768 3.51925 3.51213C4.01583 3.01659 4.6295 2.65445 5.30335 2.45929C5.79748 2.31619 6.31224 2.26627 6.82159 2.31033C7.15083 1.92193 7.54953 1.59592 7.9989 1.34987Z" fill="#0F172A"/>
<path fill-rule="evenodd" clip-rule="evenodd" d="M6.56573 6.56622C7.03457 6.09738 7.67045 5.83398 8.3335 5.83398H13.3335C13.7937 5.83398 14.1668 6.20708 14.1668 6.66732C14.1668 7.12755 13.7937 7.50065 13.3335 7.50065H8.3335C8.11248 7.50065 7.90052 7.58845 7.74424 7.74473C7.58796 7.90101 7.50016 8.11297 7.50016 8.33398C7.50016 8.555 7.58796 8.76696 7.74424 8.92324C7.90052 9.07952 8.11248 9.16732 8.3335 9.16732H11.6668C12.3299 9.16732 12.9658 9.43071 13.4346 9.89955C13.9034 10.3684 14.1668 11.0043 14.1668 11.6673C14.1668 12.3304 13.9034 12.9662 13.4346 13.4351C12.9658 13.9039 12.3299 14.1673 11.6668 14.1673H6.66683C6.20659 14.1673 5.8335 13.7942 5.8335 13.334C5.8335 12.8737 6.20659 12.5007 6.66683 12.5007H11.6668C11.8878 12.5007 12.0998 12.4129 12.2561 12.2566C12.4124 12.1003 12.5002 11.8883 12.5002 11.6673C12.5002 11.4463 12.4124 11.2343 12.2561 11.0781C12.0998 10.9218 11.8878 10.834 11.6668 10.834H8.3335C7.67045 10.834 7.03457 10.5706 6.56573 10.1018C6.09689 9.63291 5.8335 8.99703 5.8335 8.33398C5.8335 7.67094 6.09689 7.03506 6.56573 6.56622Z" fill="#0D76E1"/>
<path fill-rule="evenodd" clip-rule="evenodd" d="M9.99984 4.16602C10.4601 4.16602 10.8332 4.53911 10.8332 4.99935V14.9993C10.8332 15.4596 10.4601 15.8327 9.99984 15.8327C9.5396 15.8327 9.1665 15.4596 9.1665 14.9993V4.99935C9.1665 4.53911 9.5396 4.16602 9.99984 4.16602Z" fill="#0D76E1"/>
</g>
<defs>
<clipPath id="clip0_2024_52104">
<rect width="20" height="20" fill="white"/>
</clipPath>
</defs>
</svg>
