<svg width="20" height="20" viewBox="0 0 20 20" fill="none" xmlns="http://www.w3.org/2000/svg">
<g clip-path="url(#clip0_2008_51961)">
<path d="M19.245 8.26138L11.0872 8.26099C10.727 8.26099 10.435 8.55294 10.435 8.91317V11.5192C10.435 11.8794 10.727 12.1714 11.0872 12.1714H15.6812C15.1781 13.4769 14.2392 14.5702 13.0413 15.2649L15.0002 18.6559C18.1425 16.8386 20.0002 13.65 20.0002 10.0805C20.0002 9.57227 19.9627 9.20895 19.8878 8.79985C19.8309 8.48903 19.561 8.26138 19.245 8.26138Z" fill="#0D76E1"/>
<path d="M10.0002 16.0871C7.75198 16.0871 5.78932 14.8587 4.73522 13.041L1.34436 14.9955C3.06995 17.9862 6.30252 20.0001 10.0002 20.0001C11.8141 20.0001 13.5257 19.5117 15.0002 18.6606V18.6559L13.0413 15.2649C12.1453 15.7846 11.1084 16.0871 10.0002 16.0871Z" fill="#1ABE17"/>
<g filter="url(#filter0_d_2008_51961)">
<path d="M15 18.6606V18.6559L13.0411 15.2649C12.1451 15.7845 11.1083 16.087 10 16.087V20.0001C11.8139 20.0001 13.5256 19.5117 15 18.6606Z" fill="#1ABE17"/>
</g>
<path d="M3.91305 9.99999C3.91305 8.89183 4.21547 7.85507 4.73504 6.95909L1.34418 5.00464C0.488359 6.47444 0 8.1814 0 9.99999C0 11.8186 0.488359 13.5255 1.34418 14.9953L4.73504 13.0409C4.21547 12.1449 3.91305 11.1082 3.91305 9.99999Z" fill="#FFA80B"/>
<path d="M10.0002 3.91305C11.4662 3.91305 12.8129 4.43398 13.8647 5.30051C14.1242 5.51426 14.5014 5.49883 14.739 5.26113L16.5855 3.41465C16.8552 3.14496 16.836 2.70352 16.5479 2.45359C14.7856 0.924727 12.4926 0 10.0002 0C6.30252 0 3.06995 2.01395 1.34436 5.00465L4.73522 6.9591C5.78932 5.14141 7.75198 3.91305 10.0002 3.91305Z" fill="#FF3636"/>
<path d="M13.8645 5.30051C14.124 5.51426 14.5012 5.49883 14.7389 5.26113L16.5854 3.41465C16.855 3.14496 16.8358 2.70352 16.5477 2.45359C14.7854 0.924688 12.4925 0 10 0V3.91305C11.466 3.91305 12.8127 4.43398 13.8645 5.30051Z" fill="#FF3636"/>
</g>
<defs>
<filter id="filter0_d_2008_51961" x="6" y="15.2649" width="13" height="12.7351" filterUnits="userSpaceOnUse" color-interpolation-filters="sRGB">
<feFlood flood-opacity="0" result="BackgroundImageFix"/>
<feColorMatrix in="SourceAlpha" type="matrix" values="0 0 0 0 0 0 0 0 0 0 0 0 0 0 0 0 0 0 127 0" result="hardAlpha"/>
<feOffset dy="4"/>
<feGaussianBlur stdDeviation="2"/>
<feComposite in2="hardAlpha" operator="out"/>
<feColorMatrix type="matrix" values="0 0 0 0 0 0 0 0 0 0 0 0 0 0 0 0 0 0 0.25 0"/>
<feBlend mode="normal" in2="BackgroundImageFix" result="effect1_dropShadow_2008_51961"/>
<feBlend mode="normal" in="SourceGraphic" in2="effect1_dropShadow_2008_51961" result="shape"/>
</filter>
<clipPath id="clip0_2008_51961">
<rect width="20" height="20" fill="white"/>
</clipPath>
</defs>
</svg>
