<svg width="20" height="20" viewBox="0 0 20 20" fill="none" xmlns="http://www.w3.org/2000/svg">
<path fill-rule="evenodd" clip-rule="evenodd" d="M1.6665 18.3333C1.6665 17.8731 2.0396 17.5 2.49984 17.5H17.4998C17.9601 17.5 18.3332 17.8731 18.3332 18.3333C18.3332 18.7936 17.9601 19.1667 17.4998 19.1667H2.49984C2.0396 19.1667 1.6665 18.7936 1.6665 18.3333Z" fill="#0F172A"/>
<path fill-rule="evenodd" clip-rule="evenodd" d="M4.99984 8.33398C5.46007 8.33398 5.83317 8.70708 5.83317 9.16732V15.0007C5.83317 15.4609 5.46007 15.834 4.99984 15.834C4.5396 15.834 4.1665 15.4609 4.1665 15.0007V9.16732C4.1665 8.70708 4.5396 8.33398 4.99984 8.33398Z" fill="#0D76E1"/>
<path fill-rule="evenodd" clip-rule="evenodd" d="M8.33333 8.33398C8.79357 8.33398 9.16667 8.70708 9.16667 9.16732V15.0007C9.16667 15.4609 8.79357 15.834 8.33333 15.834C7.8731 15.834 7.5 15.4609 7.5 15.0007V9.16732C7.5 8.70708 7.8731 8.33398 8.33333 8.33398Z" fill="#0F172A"/>
<path fill-rule="evenodd" clip-rule="evenodd" d="M11.6668 8.33398C12.1271 8.33398 12.5002 8.70708 12.5002 9.16732V15.0007C12.5002 15.4609 12.1271 15.834 11.6668 15.834C11.2066 15.834 10.8335 15.4609 10.8335 15.0007V9.16732C10.8335 8.70708 11.2066 8.33398 11.6668 8.33398Z" fill="#0F172A"/>
<path fill-rule="evenodd" clip-rule="evenodd" d="M14.9998 8.33398C15.4601 8.33398 15.8332 8.70708 15.8332 9.16732V15.0007C15.8332 15.4609 15.4601 15.834 14.9998 15.834C14.5396 15.834 14.1665 15.4609 14.1665 15.0007V9.16732C14.1665 8.70708 14.5396 8.33398 14.9998 8.33398Z" fill="#0F172A"/>
<path fill-rule="evenodd" clip-rule="evenodd" d="M9.5584 0.960653C9.82863 0.791762 10.1715 0.791762 10.4417 0.960653L17.1084 5.12732C17.4237 5.32435 17.5703 5.70637 17.4678 6.06372C17.3653 6.42107 17.0385 6.66732 16.6667 6.66732H3.3334C2.96165 6.66732 2.63485 6.42107 2.53236 6.06372C2.42988 5.70637 2.57649 5.32435 2.89174 5.12732L9.5584 0.960653ZM6.23907 5.00065H13.7611L10.0001 2.65002L6.23907 5.00065Z" fill="#0F172A"/>
</svg>
