<svg width="92" height="83" viewBox="0 0 92 83" fill="none" xmlns="http://www.w3.org/2000/svg">
<path d="M48.1554 0.130692C47.0867 0.35569 46.4679 0.768188 44.0117 2.92444C40.9367 5.62444 36.6054 10.0869 33.7929 13.4619C31.1492 16.6494 22.9554 27.1494 20.4992 30.5244C14.4617 38.7932 10.3179 46.4432 9.53044 50.7557C9.06169 53.3807 9.32419 56.4182 10.1867 58.3869L10.6179 59.3619L8.61169 61.6682C4.35544 66.5807 0.699189 71.0432 0.324189 71.7744C-0.275811 72.9182 -0.107061 73.5557 1.37419 75.6557C1.82419 76.3119 4.50544 77.4932 7.18669 78.2244C8.53669 78.5994 13.2992 79.7057 17.7804 80.6994C25.2054 82.3494 26.1617 82.5182 28.4117 82.5932C30.5492 82.6869 31.0554 82.6307 32.1617 82.2932C35.3492 81.3369 38.0492 78.5807 40.7492 73.5557C41.2554 72.6182 41.6679 71.8494 41.6867 71.8119C41.7242 71.7744 42.2679 72.0369 42.9242 72.3744C44.1054 72.9744 44.1804 72.9932 46.4679 72.9932C48.5867 72.9744 48.9242 72.9369 50.0304 72.4682C51.5304 71.8307 53.3679 70.4807 54.8304 68.9057C55.4492 68.2494 57.4179 65.6994 59.2179 63.2244C63.0617 57.9182 76.1679 40.6682 77.4054 39.2619C77.4992 39.1869 77.8179 39.2994 78.1554 39.5432C78.6054 39.8994 79.0367 39.9932 80.1429 40.0494C82.2054 40.1619 83.4617 39.5057 85.9367 37.0119C89.1242 33.7869 90.9242 30.0557 90.9804 26.5307C90.9992 24.9557 90.9804 24.8432 90.4929 24.4307C90.2117 24.1869 90.0429 23.9619 90.0804 23.9057C90.3242 23.6619 90.7179 21.6557 90.8117 20.3057C90.8492 19.4807 90.9429 18.0932 91.0179 17.2119C91.3179 13.1432 89.3492 9.33694 86.1804 7.83694C85.5429 7.5182 84.8679 7.27444 84.6992 7.27444C84.5304 7.27444 84.2492 7.1057 84.0617 6.89944C83.3867 6.14944 82.5242 5.81194 78.9992 4.85569C71.2929 2.79319 63.9617 1.48069 55.8429 0.711945C54.6617 0.599442 52.7304 0.374443 51.5679 0.224442C49.2804 -0.0568085 49.1492 -0.0568085 48.1554 0.130692ZM49.6367 4.10569C45.1367 8.98069 39.1367 16.1619 38.7804 17.1182C38.2929 18.3932 38.8742 20.0994 39.9804 20.6619C40.2992 20.8307 41.9492 21.2244 43.6554 21.5244C45.3617 21.8432 50.3867 22.8182 54.8117 23.6994C59.2554 24.5807 63.4742 25.3494 64.2054 25.4057C65.8929 25.5369 66.6429 25.1994 67.5992 23.8869C69.6054 21.1494 75.3804 13.8369 78.5867 10.0307C80.3492 7.93069 80.4804 7.79945 81.0054 7.91195C81.8492 8.0807 82.5429 8.4557 82.6179 8.7932C82.6367 8.96194 80.9117 11.2682 78.7742 13.9494C68.4992 26.7744 60.9804 36.8807 54.5117 46.5744C50.5742 52.4619 50.1242 53.4182 47.6304 61.2932C46.8429 63.7869 46.4679 64.5369 45.8679 64.8557C45.5492 65.0244 45.5304 65.0057 45.6992 64.6682C45.9804 64.1619 45.9617 63.4307 45.6804 63.1869C45.3242 62.9057 15.5679 55.2744 14.7992 55.2744C14.5929 55.2744 14.0304 55.7244 13.4867 56.3432L12.5492 57.4307L12.2679 56.7369C11.7429 55.4807 11.5554 53.5869 11.7804 51.8807C12.3804 47.4744 16.5429 39.8619 23.4242 30.5807C26.0304 27.0744 33.1179 17.9619 35.2179 15.4307C38.9492 10.9494 42.9429 6.86194 47.0304 3.39319C48.0617 2.51194 48.3429 2.41819 49.8242 2.39944H51.1929L49.6367 4.10569ZM57.4929 3.24319C64.1867 3.93694 69.3242 4.8557 76.5992 6.63695L77.9492 6.97445L77.1617 7.93069C72.9429 13.1432 68.5367 18.6932 67.0179 20.7369C65.9492 22.1619 65.0304 23.2119 64.8429 23.2119C63.8117 23.2119 41.4054 18.7494 41.0867 18.4869C40.9554 18.3744 40.8429 18.1869 40.8429 18.0557C40.8429 17.8119 46.0929 11.5119 49.3179 7.8932C51.5679 5.36195 54.0804 2.96194 54.4742 2.96194C54.6242 2.96194 55.9742 3.09319 57.4929 3.24319ZM85.4304 10.1619C86.1617 10.5369 87.4179 11.9244 87.8679 12.8057C88.2242 13.5182 88.6929 14.9619 88.5617 14.9619C88.5429 14.9619 88.2054 14.8307 87.8492 14.6807C87.4742 14.5307 86.9679 14.3994 86.7242 14.3994C86.0867 14.3994 84.5117 15.2432 83.5367 16.0869C81.2117 18.1494 69.0617 33.7307 60.6992 45.4307C54.3429 54.3182 53.6117 55.6869 52.9179 60.1119C51.9429 66.4869 51.1742 68.3432 49.2429 68.9432C48.0429 69.3369 45.3804 69.2432 43.4117 68.7369L42.6992 68.5682L43.0742 67.9682C43.4492 67.3869 43.4867 67.3682 44.7617 67.3682C45.9054 67.3682 46.1492 67.2932 46.8804 66.8057C48.1179 65.9432 48.8117 64.7057 49.6742 61.9494C51.9429 54.6744 52.3179 53.8119 55.0179 49.6869C61.1304 40.3682 68.4242 30.4869 78.5117 17.8682C81.6429 13.9494 84.3242 10.5557 84.4742 10.3307C84.8117 9.82445 84.7929 9.82445 85.4304 10.1619ZM87.6804 17.2869C87.9992 17.6432 88.2992 18.1119 88.3742 18.3369C88.6929 19.3682 86.9117 22.9682 84.3804 26.3432C82.2054 29.2307 80.1617 31.7244 72.1554 41.2119C63.9054 50.9807 59.9679 55.9119 56.5179 60.6932C55.5242 62.0619 54.7179 63.0369 54.7179 62.8494C54.7179 62.6432 54.9242 61.4057 55.1867 60.0744C55.8992 56.2119 56.7992 54.6744 64.1867 44.4932C73.9179 31.0869 84.2117 18.1869 86.1242 17.0057C86.8929 16.5182 87.0242 16.5557 87.6804 17.2869ZM86.8742 28.7244C86.3492 30.9932 85.0367 33.4307 83.6117 34.8744C82.2429 36.2244 81.2679 36.6557 80.0867 36.4307L79.4492 36.3182L80.2554 35.3244C80.7054 34.7619 82.4117 32.6244 84.0617 30.5619C85.8429 28.3307 87.0804 26.9244 87.1367 27.1119C87.1554 27.2619 87.0429 27.9932 86.8742 28.7244ZM23.7617 59.7932C28.2617 60.9369 33.1179 62.1744 34.5617 62.5494C36.0054 62.9057 37.2617 63.2619 37.3367 63.3369C37.5242 63.5057 34.5429 67.4994 30.5492 72.4119C28.7867 74.5682 27.5304 76.2744 27.5304 76.4994C27.5304 77.6619 28.9179 77.9432 29.8179 76.9869C30.8679 75.8619 35.6304 69.8244 37.8242 66.8619C40.2429 63.5619 39.9617 63.7494 41.9492 64.3307L42.7367 64.5557L39.6242 68.7744C33.1929 77.4557 32.4242 78.4307 31.8804 78.7682C31.5617 78.9369 30.9992 79.0869 30.5867 79.0869C29.6679 79.0869 23.0679 77.9432 19.0929 77.0994C14.3304 76.0682 4.48669 73.5744 3.47419 73.1244C2.63044 72.7494 2.59294 72.6932 2.79919 72.2994C2.93044 72.0744 3.41794 71.4557 3.90544 70.9307C4.37419 70.4244 5.72419 68.8119 6.90544 67.3682C11.0304 62.3057 15.0617 57.7119 15.3992 57.7119C15.5117 57.7119 19.2804 58.6494 23.7617 59.7932Z" fill="#0D76E1"/>
<path d="M31.4677 23.9432C29.5927 24.9557 29.1052 27.4119 30.5865 28.5369C31.3365 29.0994 35.3302 30.1494 36.774 30.1494C38.199 30.1494 39.3052 29.5494 39.8677 28.4619C40.3552 27.5057 40.374 26.9994 40.0177 26.1182C39.6427 25.2369 38.6115 24.6182 36.5302 24.0557C34.3552 23.4744 32.4427 23.4369 31.4677 23.9432ZM36.0615 26.3994C37.0365 26.7182 37.8427 27.0557 37.8427 27.1494C37.8427 27.4119 37.0365 27.8994 36.6052 27.8994C36.099 27.8994 33.0427 27.2057 32.4615 26.9619C32.2177 26.8682 32.0302 26.6619 32.0302 26.5307C32.0302 25.6682 33.5865 25.6119 36.0615 26.3994Z" fill="#0B0D0E"/>
<path d="M42.8494 26.3056C40.8994 26.9806 39.9806 29.3244 41.1244 30.6744C41.7056 31.3681 42.4181 31.6494 45.1931 32.3056C48.2306 33.0181 49.5244 32.7556 50.6681 31.2181C51.1556 30.5431 51.1931 28.9681 50.7056 28.2369C50.2931 27.6181 48.2494 26.7369 46.2431 26.3244C44.4994 25.9681 43.7869 25.9494 42.8494 26.3056ZM45.3806 28.4806C46.9744 28.7994 48.2494 29.1931 48.6431 29.4744C48.9244 29.6994 48.9431 29.7744 48.7369 30.0369C48.3806 30.4494 47.1431 30.4306 45.2869 29.9431C43.0181 29.3806 42.4556 28.8931 43.5431 28.4619C44.0869 28.2369 44.2369 28.2369 45.3806 28.4806Z" fill="#0B0D0E"/>
<path d="M54.5116 28.6306C52.5616 29.2681 51.6241 31.5931 52.7678 32.9619C53.4241 33.7306 54.2866 34.1431 56.4053 34.6494C58.4678 35.1556 60.1928 35.2119 61.0366 34.7806C62.2366 34.1431 62.9866 32.6994 62.7053 31.5556C62.6491 31.3119 62.3303 30.8056 62.0303 30.4494C60.9803 29.2681 56.1616 28.0869 54.5116 28.6306ZM58.2053 31.1806C59.2178 31.4431 60.1741 31.7806 60.3428 31.9494C60.5866 32.2119 60.5866 32.2681 60.2678 32.5119C60.0616 32.6619 59.6116 32.7744 59.2741 32.7744C58.3741 32.7744 54.8678 31.8744 54.6803 31.5931C54.4741 31.2744 55.2053 30.7119 55.8428 30.7119C56.1241 30.7119 57.1928 30.9181 58.2053 31.1806Z" fill="#0B0D0E"/>
<path d="M24.9991 32.3994C22.9928 33.3932 22.5803 36.2432 24.2678 37.2932C25.0178 37.7432 28.8428 38.5869 30.1928 38.5869C32.7241 38.5869 34.2803 36.6182 33.3616 34.5744C33.0428 33.8244 32.8366 33.6369 31.9178 33.2244C30.4928 32.6057 28.0553 32.0244 26.7803 32.0244C26.1241 32.0244 25.4678 32.1557 24.9991 32.3994ZM28.6553 34.8369C30.7553 35.3432 31.3178 35.5682 31.2428 35.9432C31.1116 36.5619 30.0803 36.5994 27.8116 36.0744C26.6303 35.7932 25.5991 35.4744 25.5428 35.3619C25.3741 35.0807 26.1616 34.4619 26.6678 34.4619C26.8741 34.4619 27.7741 34.6307 28.6553 34.8369Z" fill="#0B0D0E"/>
<path d="M36.0429 34.7244C35.0491 35.1744 34.4116 36.2057 34.3179 37.4807C34.2429 38.5494 34.2616 38.6057 34.9554 39.3182C35.5929 39.9369 35.9304 40.0869 37.4679 40.4619C38.4429 40.6869 39.9241 40.9307 40.7679 40.9682C42.0429 41.0619 42.3804 41.0057 43.0554 40.6682C44.7804 39.7869 45.1929 37.6119 43.8991 36.2994C42.6054 35.0244 37.5804 34.0119 36.0429 34.7244ZM40.7116 37.3682C41.5179 37.6119 42.2304 37.8557 42.3054 37.9307C42.4929 38.1182 41.6116 38.7744 41.1429 38.7744C40.5241 38.7744 36.8304 37.8369 36.6241 37.6307C36.4929 37.4994 36.5866 37.3119 36.8866 37.0682C37.4491 36.6182 38.3679 36.6932 40.7116 37.3682Z" fill="#0B0D0E"/>
<path d="M47.4617 37.1057C45.6429 38.0057 45.2117 40.4432 46.6554 41.662C47.6867 42.5245 52.3367 43.3682 53.8742 42.9932C55.8429 42.487 56.8179 40.4245 55.8429 38.812C54.8492 37.1995 49.4867 36.0932 47.4617 37.1057ZM51.4179 39.337C52.3554 39.562 53.3117 39.7682 53.5554 39.8245C54.1367 39.937 54.0992 40.5932 53.4804 40.8745C53.0867 41.062 52.5992 41.0057 50.7242 40.5745C49.4679 40.2932 48.3617 39.9932 48.2679 39.8995C48.0617 39.6932 48.2867 39.3557 48.7929 39.1495C49.3742 38.9057 49.5242 38.9245 51.4179 39.337Z" fill="#0B0D0E"/>
<path d="M19.5619 41.0057C18.7182 41.2119 18.2494 41.5119 17.7057 42.1494C16.2807 43.8557 16.9557 46.0494 19.0557 46.6494C21.0807 47.2119 23.7619 47.6244 24.5869 47.5119C26.2557 47.2494 27.4182 46.0869 27.4182 44.6244C27.4182 43.5932 26.8932 42.6932 26.0307 42.2432C24.4369 41.4182 20.7244 40.7057 19.5619 41.0057ZM23.0307 43.7244C23.9869 43.9869 24.9057 44.3244 25.0744 44.4932C25.3557 44.7744 25.3369 44.8119 25.0182 45.0744C24.5119 45.4307 23.6494 45.4119 21.6432 44.9432C19.6932 44.4932 19.2807 44.3057 19.2807 43.9307C19.2807 43.1807 20.5932 43.1057 23.0307 43.7244Z" fill="#0B0D0E"/>
<path d="M30.0618 43.4806C29.368 43.7431 28.5243 44.5119 28.168 45.1869C27.5868 46.2931 27.9618 47.9619 28.9368 48.5994C29.593 49.0306 33.3618 49.8556 34.768 49.8931C38.0493 49.9494 39.5493 46.5931 37.0743 44.7369C35.9118 43.8744 31.2618 43.0494 30.0618 43.4806ZM33.8118 46.1056C35.7243 46.5931 36.1555 46.8556 35.7993 47.2869C35.443 47.7181 34.543 47.6619 32.1805 47.0994C30.1555 46.6119 29.7618 46.3306 30.493 45.9181C30.9993 45.6181 32.1055 45.6744 33.8118 46.1056Z" fill="#0B0D0E"/>
<path d="M42.2115 45.5431C40.7678 45.8244 39.849 46.7619 39.6053 48.2806C39.474 49.1806 39.8865 50.2119 40.5803 50.6806C41.3865 51.2056 44.7428 51.9556 46.374 51.9744C47.5553 51.9931 48.0053 51.9181 48.5115 51.6181C49.4303 51.0744 49.8803 50.3619 49.974 49.3306C50.1428 47.6619 49.0178 46.6869 46.0928 45.9181C44.2928 45.4681 43.2053 45.3556 42.2115 45.5431ZM45.2115 48.1494C47.0303 48.5994 47.7803 48.8806 47.7803 49.1056C47.7803 49.1994 47.574 49.4056 47.3303 49.5556C46.824 49.8931 46.5428 49.8556 43.8428 49.2369C41.724 48.7494 41.6303 48.6744 42.1365 48.1681C42.624 47.6806 43.2615 47.6619 45.2115 48.1494Z" fill="#0B0D0E"/>
<path d="M54.7178 6.31811C54.3991 6.93686 54.4928 7.27436 55.7303 9.80561C56.3866 11.1369 57.3991 13.4619 57.9803 14.9619C59.4803 18.7869 59.5178 18.8806 60.0616 19.0119C60.7553 19.1806 61.4678 18.6556 61.4678 17.9806C61.4678 16.5931 57.1741 6.69311 56.3303 6.11186C55.9178 5.81186 54.9241 5.96186 54.7178 6.31811Z" fill="#0B0D0E"/>
<path d="M62.8742 8.47434C62.593 8.88684 62.6117 9.09309 62.968 11.0618C63.193 12.2243 63.493 13.3118 63.643 13.4806C64.3742 14.2868 65.7805 13.9118 65.7805 12.9181C65.7805 12.0931 65.0305 8.92434 64.7305 8.43684C64.3367 7.83684 63.268 7.85559 62.8742 8.47434Z" fill="#0B0D0E"/>
<path d="M51.1556 11.7556C50.8369 12.3556 50.9306 12.8806 51.7369 15.2994C52.3744 17.1931 52.5994 17.6431 52.9744 17.8306C53.6119 18.1119 54.4181 17.6619 54.4931 16.9869C54.5681 16.2931 53.2556 11.9244 52.8806 11.6244C52.4119 11.2681 51.3806 11.3431 51.1556 11.7556Z" fill="#0B0D0E"/>
</svg>
