<svg width="20" height="20" viewBox="0 0 20 20" fill="none" xmlns="http://www.w3.org/2000/svg">
<path fill-rule="evenodd" clip-rule="evenodd" d="M3.33317 3.33268V5.83268H5.83317V3.33268H3.33317ZM3.33216 5.83264C3.33211 5.83264 3.3321 5.83264 3.33213 5.83264L3.33216 5.83264ZM1.6665 3.33268C1.6665 2.41221 2.4127 1.66602 3.33317 1.66602H5.83317C6.75365 1.66602 7.49984 2.41221 7.49984 3.33268V5.83268C7.49984 6.75316 6.75365 7.49935 5.83317 7.49935H3.33317C2.4127 7.49935 1.6665 6.75316 1.6665 5.83268V3.33268Z" fill="#0F172A"/>
<path fill-rule="evenodd" clip-rule="evenodd" d="M14.1667 3.33268V5.83268H16.6667V3.33268H14.1667ZM14.1657 5.83264C14.1656 5.83264 14.1656 5.83264 14.1656 5.83264L14.1657 5.83264ZM12.5 3.33268C12.5 2.41221 13.2462 1.66602 14.1667 1.66602H16.6667C17.5871 1.66602 18.3333 2.41221 18.3333 3.33268V5.83268C18.3333 6.75316 17.5871 7.49935 16.6667 7.49935H14.1667C13.2462 7.49935 12.5 6.75316 12.5 5.83268V3.33268Z" fill="#0D76E1"/>
<path fill-rule="evenodd" clip-rule="evenodd" d="M3.33317 14.1667V16.6667H5.83317V14.1667H3.33317ZM3.33216 16.6666C3.33211 16.6666 3.3321 16.6666 3.33213 16.6666L3.33216 16.6666ZM1.6665 14.1667C1.6665 13.2462 2.4127 12.5 3.33317 12.5H5.83317C6.75365 12.5 7.49984 13.2462 7.49984 14.1667V16.6667C7.49984 17.5871 6.75365 18.3333 5.83317 18.3333H3.33317C2.4127 18.3333 1.6665 17.5871 1.6665 16.6667V14.1667Z" fill="#0F172A"/>
<path fill-rule="evenodd" clip-rule="evenodd" d="M13.2322 13.2322C13.7011 12.7634 14.337 12.5 15 12.5H17.5C17.9602 12.5 18.3333 12.8731 18.3333 13.3333C18.3333 13.7936 17.9602 14.1667 17.5 14.1667H15C14.779 14.1667 14.567 14.2545 14.4107 14.4107C14.2545 14.567 14.1667 14.779 14.1667 15V17.5C14.1667 17.9602 13.7936 18.3333 13.3333 18.3333C12.8731 18.3333 12.5 17.9602 12.5 17.5V15C12.5 14.337 12.7634 13.7011 13.2322 13.2322Z" fill="#0F172A"/>
<path fill-rule="evenodd" clip-rule="evenodd" d="M17.4998 16.666C17.9601 16.666 18.3332 17.0391 18.3332 17.4993V17.5077C18.3332 17.9679 17.9601 18.341 17.4998 18.341C17.0396 18.341 16.6665 17.9679 16.6665 17.5077V17.4993C16.6665 17.0391 17.0396 16.666 17.4998 16.666Z" fill="#0F172A"/>
<path fill-rule="evenodd" clip-rule="evenodd" d="M10 5C10.4602 5 10.8333 5.3731 10.8333 5.83333V8.33333C10.8333 8.99638 10.5699 9.63226 10.1011 10.1011C9.63226 10.5699 8.99638 10.8333 8.33333 10.8333H5.83333C5.3731 10.8333 5 10.4602 5 10C5 9.53976 5.3731 9.16667 5.83333 9.16667H8.33333C8.55435 9.16667 8.76631 9.07887 8.92259 8.92259C9.07887 8.76631 9.16667 8.55435 9.16667 8.33333V5.83333C9.16667 5.3731 9.53976 5 10 5Z" fill="#0F172A"/>
<path fill-rule="evenodd" clip-rule="evenodd" d="M1.6665 9.99935C1.6665 9.53911 2.0396 9.16602 2.49984 9.16602H2.50817C2.96841 9.16602 3.3415 9.53911 3.3415 9.99935C3.3415 10.4596 2.96841 10.8327 2.50817 10.8327H2.49984C2.0396 10.8327 1.6665 10.4596 1.6665 9.99935Z" fill="#0F172A"/>
<path fill-rule="evenodd" clip-rule="evenodd" d="M9.1665 2.49935C9.1665 2.03911 9.5396 1.66602 9.99984 1.66602H10.0082C10.4684 1.66602 10.8415 2.03911 10.8415 2.49935C10.8415 2.95959 10.4684 3.33268 10.0082 3.33268H9.99984C9.5396 3.33268 9.1665 2.95959 9.1665 2.49935Z" fill="#0F172A"/>
<path fill-rule="evenodd" clip-rule="evenodd" d="M9.99984 12.5C10.4601 12.5 10.8332 12.8731 10.8332 13.3333V13.3417C10.8332 13.8019 10.4601 14.175 9.99984 14.175C9.5396 14.175 9.1665 13.8019 9.1665 13.3417V13.3333C9.1665 12.8731 9.5396 12.5 9.99984 12.5Z" fill="#0F172A"/>
<path fill-rule="evenodd" clip-rule="evenodd" d="M12.5 9.99935C12.5 9.53911 12.8731 9.16602 13.3333 9.16602H14.1667C14.6269 9.16602 15 9.53911 15 9.99935C15 10.4596 14.6269 10.8327 14.1667 10.8327H13.3333C12.8731 10.8327 12.5 10.4596 12.5 9.99935Z" fill="#0F172A"/>
<path fill-rule="evenodd" clip-rule="evenodd" d="M17.4998 9.16602C17.9601 9.16602 18.3332 9.53911 18.3332 9.99935V10.0077C18.3332 10.4679 17.9601 10.841 17.4998 10.841C17.0396 10.841 16.6665 10.4679 16.6665 10.0077V9.99935C16.6665 9.53911 17.0396 9.16602 17.4998 9.16602Z" fill="#0F172A"/>
<path fill-rule="evenodd" clip-rule="evenodd" d="M9.99984 15.834C10.4601 15.834 10.8332 16.2071 10.8332 16.6673V17.5007C10.8332 17.9609 10.4601 18.334 9.99984 18.334C9.5396 18.334 9.1665 17.9609 9.1665 17.5007V16.6673C9.1665 16.2071 9.5396 15.834 9.99984 15.834Z" fill="#0F172A"/>
</svg>
