<svg width="20" height="20" viewBox="0 0 20 20" fill="none" xmlns="http://www.w3.org/2000/svg">
<path fill-rule="evenodd" clip-rule="evenodd" d="M6.6665 2.49935C6.6665 2.03911 7.0396 1.66602 7.49984 1.66602H11.6665C12.7716 1.66602 13.8314 2.105 14.6128 2.8864C15.3942 3.66781 15.8332 4.72761 15.8332 5.83268C15.8332 6.93775 15.3942 7.99756 14.6128 8.77896C13.8314 9.56036 12.7716 9.99935 11.6665 9.99935H8.33317V17.4993C8.33317 17.9596 7.96007 18.3327 7.49984 18.3327C7.0396 18.3327 6.6665 17.9596 6.6665 17.4993V9.99935H4.99984C4.5396 9.99935 4.1665 9.62625 4.1665 9.16602C4.1665 8.70578 4.5396 8.33268 4.99984 8.33268H6.6665V2.49935ZM8.33317 8.33268H11.6665C12.3295 8.33268 12.9654 8.06929 13.4343 7.60045C13.9031 7.13161 14.1665 6.49572 14.1665 5.83268C14.1665 5.16964 13.9031 4.53376 13.4343 4.06492C12.9654 3.59607 12.3295 3.33268 11.6665 3.33268H8.33317V8.33268Z" fill="#0F172A"/>
<path fill-rule="evenodd" clip-rule="evenodd" d="M4.1665 12.4993C4.1665 12.0391 4.5396 11.666 4.99984 11.666H11.6665C12.1267 11.666 12.4998 12.0391 12.4998 12.4993C12.4998 12.9596 12.1267 13.3327 11.6665 13.3327H4.99984C4.5396 13.3327 4.1665 12.9596 4.1665 12.4993Z" fill="#0D76E1"/>
</svg>
