<svg width="20" height="20" viewBox="0 0 20 20" fill="none" xmlns="http://www.w3.org/2000/svg">
<path fill-rule="evenodd" clip-rule="evenodd" d="M2.89522 0.958443C3.1409 0.806604 3.44769 0.792801 3.70601 0.921963L5 1.56896L6.29399 0.921963C6.52859 0.804659 6.80474 0.804659 7.03934 0.921963L8.33333 1.56896L9.62732 0.921963C9.86193 0.804659 10.1381 0.804659 10.3727 0.921963L11.6667 1.56896L12.9607 0.921963C13.1953 0.804659 13.4714 0.804659 13.706 0.921963L15 1.56896L16.294 0.921963C16.5523 0.792801 16.8591 0.806604 17.1048 0.958443C17.3505 1.11028 17.5 1.3785 17.5 1.66732V18.334C17.5 18.6228 17.3505 18.891 17.1048 19.0429C16.8591 19.1947 16.5523 19.2085 16.294 19.0793L15 18.4323L13.706 19.0793C13.4714 19.1966 13.1953 19.1966 12.9607 19.0793L11.6667 18.4323L10.3727 19.0793C10.1381 19.1966 9.86193 19.1966 9.62732 19.0793L8.33333 18.4323L7.03934 19.0793C6.80474 19.1966 6.52859 19.1966 6.29399 19.0793L5 18.4323L3.70601 19.0793C3.44769 19.2085 3.1409 19.1947 2.89522 19.0429C2.64954 18.891 2.5 18.6228 2.5 18.334V1.66732C2.5 1.3785 2.64954 1.11028 2.89522 0.958443ZM4.16667 3.01568V16.9856L4.62732 16.7553C4.86193 16.638 5.13807 16.638 5.37268 16.7553L6.66667 17.4023L7.96066 16.7553C8.19526 16.638 8.47141 16.638 8.70601 16.7553L10 17.4023L11.294 16.7553C11.5286 16.638 11.8047 16.638 12.0393 16.7553L13.3333 17.4023L14.6273 16.7553C14.8619 16.638 15.1381 16.638 15.3727 16.7553L15.8333 16.9856V3.01568L15.3727 3.24601C15.1381 3.36331 14.8619 3.36331 14.6273 3.24601L13.3333 2.59901L12.0393 3.24601C11.8047 3.36331 11.5286 3.36331 11.294 3.24601L10 2.59901L8.70601 3.24601C8.47141 3.36331 8.19526 3.36331 7.96066 3.24601L6.66667 2.59901L5.37268 3.24601C5.13807 3.36331 4.86193 3.36331 4.62732 3.24601L4.16667 3.01568Z" fill="#0F172A"/>
<path fill-rule="evenodd" clip-rule="evenodd" d="M5.8335 6.66732C5.8335 6.20708 6.20659 5.83398 6.66683 5.83398H11.6668C12.1271 5.83398 12.5002 6.20708 12.5002 6.66732C12.5002 7.12755 12.1271 7.50065 11.6668 7.50065H6.66683C6.20659 7.50065 5.8335 7.12755 5.8335 6.66732Z" fill="#0D76E1"/>
<path fill-rule="evenodd" clip-rule="evenodd" d="M5.8335 9.99935C5.8335 9.53911 6.20659 9.16602 6.66683 9.16602H13.3335C13.7937 9.16602 14.1668 9.53911 14.1668 9.99935C14.1668 10.4596 13.7937 10.8327 13.3335 10.8327H6.66683C6.20659 10.8327 5.8335 10.4596 5.8335 9.99935Z" fill="#0F172A"/>
<path fill-rule="evenodd" clip-rule="evenodd" d="M5.8335 13.3333C5.8335 12.8731 6.20659 12.5 6.66683 12.5H10.8335C11.2937 12.5 11.6668 12.8731 11.6668 13.3333C11.6668 13.7936 11.2937 14.1667 10.8335 14.1667H6.66683C6.20659 14.1667 5.8335 13.7936 5.8335 13.3333Z" fill="#0F172A"/>
</svg>
