<svg width="39" height="41" viewBox="0 0 39 41" fill="none" xmlns="http://www.w3.org/2000/svg">
<path d="M25.7499 0.38261C25.5412 0.608696 25.0021 1.72174 24.5325 2.86957C24.0803 4.01739 23.5934 5.13044 23.4716 5.33913C23.1934 5.79131 21.9412 6.41739 19.7499 7.23478C18.8803 7.56522 18.0629 7.96522 17.9412 8.12174C17.3325 8.95652 17.576 10.0348 18.4803 10.487C18.7934 10.6435 19.8716 11.0957 20.9151 11.4957C21.9412 11.8957 22.9673 12.4174 23.2108 12.6435C23.4369 12.887 24.0282 14.1044 24.5151 15.3565C25.0195 16.6261 25.576 17.7913 25.7673 17.9478C25.9586 18.1217 26.376 18.2609 26.689 18.2609C27.0021 18.2609 27.4195 18.1217 27.6282 17.9478C27.8369 17.7913 28.3934 16.6783 28.8629 15.4957C29.3325 14.313 29.8369 13.1652 29.9934 12.9391C30.3064 12.4522 31.2803 11.9478 33.5934 11.0609C35.4021 10.3652 35.8195 10 35.8195 9.13044C35.8195 8.22609 35.4195 7.89565 33.2629 7.06087C29.9586 5.77391 30.0282 5.84348 28.776 2.52174C28.0456 0.573914 27.576 1.90735e-06 26.689 1.90735e-06C26.3238 1.90735e-06 25.976 0.139132 25.7499 0.38261ZM27.0369 6.45218C27.2108 6.99131 28.3238 8.15652 29.176 8.69565L29.9064 9.14783L29.2456 9.53044C28.4629 9.96522 27.2108 11.2522 27.0369 11.8087C26.8803 12.3304 26.7238 12.2435 26.0456 11.2174C25.7325 10.7478 25.0543 10.087 24.5499 9.73913C23.7673 9.21739 23.6629 9.09565 23.9064 8.95652C24.8629 8.38261 25.7847 7.54783 26.1847 6.86957C26.689 6 26.8629 5.91304 27.0369 6.45218Z" fill="#475569"/>
<path d="M15.2711 2.23135C10.6858 2.8193 6.70819 4.9487 4.01289 8.26452C-0.107687 13.2999 -0.989772 20.301 1.76697 26.0285C4.04345 30.7524 7.74556 33.7915 12.9438 35.2319C14.1124 35.5499 14.7392 35.6128 17.1043 35.5876C19.4694 35.5625 20.0947 35.4863 21.2564 35.1434C23.1982 34.5662 24.8077 33.8186 26.2583 32.8466C26.9317 32.3873 27.5707 31.963 27.6399 31.9275C27.7265 31.8918 29.6237 33.663 31.8731 35.8479C35.8624 39.7187 35.9852 39.8218 36.6634 39.8146C37.2547 39.8083 37.4623 39.7017 37.8229 39.2631C38.3037 38.684 38.3686 38.2485 38.0667 37.6604C37.9601 37.4528 36.096 35.5247 33.9167 33.3913L29.9445 29.4855L30.5964 28.6437C31.5396 27.3814 32.8481 24.4978 33.2301 22.8067C33.4127 21.9873 33.6073 20.6634 33.6682 19.8453C33.74 18.4184 33.7392 18.3488 33.2638 17.7973C32.6122 17.039 31.6556 17.0318 31.0373 17.7688C30.6939 18.1899 30.6107 18.5386 30.5372 19.8091C30.4164 21.5322 30.184 22.5782 29.5402 24.1851C28.1514 27.6958 24.7581 30.7929 20.9796 32.0158C19.8703 32.3754 19.3144 32.4335 17.071 32.4574C14.1147 32.4888 12.8072 32.2071 10.7084 31.0989C5.84593 28.5244 3.04608 23.6496 3.31914 18.2551C3.50691 14.6529 4.8665 11.6643 7.46579 9.13218C9.87583 6.79336 12.4032 5.67076 15.9822 5.31961C17.7546 5.16162 18.255 4.79106 18.2433 3.69546C18.2304 2.47814 17.2164 1.98455 15.2711 2.23135Z" fill="#475569"/>
</svg>
