<svg width="20" height="20" viewBox="0 0 20 20" fill="none" xmlns="http://www.w3.org/2000/svg">
<path fill-rule="evenodd" clip-rule="evenodd" d="M2.39874 2.39825C2.86758 1.92941 3.50346 1.66602 4.1665 1.66602H14.9998C15.4419 1.66602 15.8658 1.84161 16.1783 2.15417C16.4909 2.46673 16.6665 2.89066 16.6665 3.33268V4.99935C17.1085 4.99935 17.5325 5.17494 17.845 5.4875C18.1576 5.80007 18.3332 6.22399 18.3332 6.66602V9.3893C18.4583 9.46151 18.5745 9.55027 18.6784 9.65417C18.9909 9.96673 19.1665 10.3907 19.1665 10.8327V12.4993C19.1665 12.9414 18.9909 13.3653 18.6784 13.6779C18.3658 13.9904 17.9419 14.166 17.4998 14.166H14.9998C14.3368 14.166 13.7009 13.9026 13.2321 13.4338C12.7632 12.9649 12.4998 12.3291 12.4998 11.666C12.4998 11.003 12.7632 10.3671 13.2321 9.89825C13.7009 9.42941 14.3368 9.16602 14.9998 9.16602H16.6665V6.66602H4.1665C3.50346 6.66602 2.86758 6.40262 2.39874 5.93378C1.9299 5.46494 1.6665 4.82906 1.6665 4.16602C1.6665 3.50297 1.9299 2.86709 2.39874 2.39825ZM14.9998 4.99935V3.33268H4.1665C3.94549 3.33268 3.73353 3.42048 3.57725 3.57676C3.42097 3.73304 3.33317 3.945 3.33317 4.16602C3.33317 4.38703 3.42097 4.59899 3.57725 4.75527C3.73353 4.91155 3.94549 4.99935 4.1665 4.99935H14.9998ZM14.9998 10.8327C14.7788 10.8327 14.5669 10.9205 14.4106 11.0768C14.2543 11.233 14.1665 11.445 14.1665 11.666C14.1665 11.887 14.2543 12.099 14.4106 12.2553C14.5669 12.4116 14.7788 12.4993 14.9998 12.4993H17.4998V10.8327H14.9998Z" fill="#0F172A"/>
<path fill-rule="evenodd" clip-rule="evenodd" d="M2.49984 3.33398C2.96007 3.33398 3.33317 3.70708 3.33317 4.16732V15.834C3.33317 16.055 3.42097 16.267 3.57725 16.4232C3.73353 16.5795 3.94549 16.6673 4.1665 16.6673H16.6665V13.334C16.6665 12.8737 17.0396 12.5007 17.4998 12.5007C17.9601 12.5007 18.3332 12.8737 18.3332 13.334V16.6673C18.3332 17.1093 18.1576 17.5333 17.845 17.8458C17.5325 18.1584 17.1085 18.334 16.6665 18.334H4.1665C3.50346 18.334 2.86758 18.0706 2.39874 17.6018C1.9299 17.1329 1.6665 16.497 1.6665 15.834V4.16732C1.6665 3.70708 2.0396 3.33398 2.49984 3.33398Z" fill="#0D76E1"/>
</svg>
