<svg width="135" height="40" viewBox="0 0 135 40" fill="none" xmlns="http://www.w3.org/2000/svg">
<path d="M2.40152 14.9442C2.80223 11.1917 5.9685 8.34552 9.74232 8.34552H23.038C26.8058 8.34552 29.969 11.1828 30.3771 14.9284L30.9383 20.0782C31.8814 28.7334 25.1022 36.2915 16.3958 36.2915C7.70199 36.2915 0.926802 28.7542 1.84994 20.1095L2.40152 14.9442Z" fill="#0D76E1"/>
<path d="M1.18627 26.8036C1.73215 21.6515 6.07788 17.7419 11.2588 17.7419H21.6032C26.796 17.7419 31.1477 21.669 31.6789 26.8346C32.2931 32.8069 27.607 37.9997 21.6031 37.9997H11.2588C5.24248 37.9997 0.552369 32.7864 1.18627 26.8036Z" fill="#FFA80B"/>
<path d="M23.2476 10.298L23.2476 8.95565C23.2476 5.11397 20.1333 1.99967 16.2916 1.99967C12.45 1.99967 9.33571 5.11397 9.33571 8.95565L9.33571 10.298" stroke="#0D76E1" stroke-linecap="round"/>
<path d="M13.124 27.9155V36.1931H21.5261C23.8357 36.1931 25.8135 35.3909 27.4593 33.7866C29.119 32.1684 29.9488 30.2114 29.9488 27.9155C29.9488 25.6196 29.119 23.6626 27.4593 22.0444C25.7997 20.4124 23.8219 19.5964 21.5261 19.5964C19.2302 19.5964 17.2524 20.4124 15.5928 22.0444C13.9469 23.6626 13.124 25.6196 13.124 27.9155ZM16.6301 32.8945V27.9155C16.6301 26.5463 17.1003 25.3707 18.0408 24.3887C18.9951 23.3929 20.1568 22.895 21.5261 22.895C22.8953 22.895 24.0501 23.3929 24.9906 24.3887C25.9449 25.3707 26.4221 26.5463 26.4221 27.9155C26.4221 29.2847 25.9449 30.4603 24.9906 31.4423C24.0501 32.4104 22.8953 32.8945 21.5261 32.8945H16.6301Z" fill="white"/>
<path d="M24.209 10.9097L22.3931 10.9097" stroke="white" stroke-width="0.5" stroke-linecap="round"/>
<path d="M10.2974 10.9097L8.48143 10.9097" stroke="white" stroke-width="0.5" stroke-linecap="round"/>
<path d="M38.0328 26.5887C38.0328 25.1499 38.5379 23.9217 39.5481 22.9043C40.5584 21.8724 41.7882 21.3565 43.2377 21.3565H44.9287C45.895 21.3565 46.7149 21.0222 47.3884 20.3536C48.0765 19.6705 48.4206 18.8493 48.4206 17.8901H43.2377C40.8073 17.8901 38.7136 18.7403 36.9567 20.4408C35.2144 22.1268 34.3433 24.1761 34.3433 26.5887V35.331C35.3535 35.331 36.2173 34.9749 36.9347 34.2627C37.6668 33.536 38.0328 32.6712 38.0328 31.6684V26.5887Z" fill="white"/>
<path d="M54.7673 35.331C52.3369 35.331 50.2506 34.488 48.5083 32.802C46.766 31.1016 45.8949 29.045 45.8949 26.6323C45.8949 24.2197 46.766 22.1631 48.5083 20.4626C50.2506 18.7476 52.3369 17.8901 54.7673 17.8901H59.9722C59.9722 18.8493 59.6281 19.6705 58.94 20.3536C58.2519 21.0222 57.4247 21.3565 56.4583 21.3565H54.7673C53.3325 21.3565 52.11 21.8797 51.0997 22.9261C50.0895 23.9726 49.5844 25.208 49.5844 26.6323C49.5844 28.0567 50.0895 29.2848 51.0997 30.3167C52.11 31.3486 53.3325 31.8646 54.7673 31.8646H56.4583C57.4247 31.8646 58.2519 32.2061 58.94 32.8892C59.6281 33.5578 59.9722 34.3717 59.9722 35.331H54.7673ZM53.5375 24.8882H59.9722C59.9722 25.8475 59.6281 26.6614 58.94 27.33C58.2519 27.9985 57.4247 28.3328 56.4583 28.3328H53.5375C53.0543 28.3328 52.6444 28.1729 52.3076 27.8532C51.9709 27.5189 51.8025 27.112 51.8025 26.6323C51.8025 26.1382 51.9636 25.724 52.2857 25.3897C52.6224 25.0554 53.0397 24.8882 53.5375 24.8882Z" fill="white"/>
<path d="M78.9329 26.6323V35.331H70.0165C67.5861 35.331 65.4924 34.488 63.7355 32.802C61.9932 31.1016 61.1221 29.045 61.1221 26.6323C61.1221 24.2197 61.9932 22.1631 63.7355 20.4626C65.4924 18.7476 67.5861 17.8901 70.0165 17.8901C72.4469 17.8901 74.5406 18.7476 76.2975 20.4626C78.0544 22.1631 78.9329 24.2197 78.9329 26.6323ZM75.1994 31.8646V26.6323C75.1994 25.1935 74.6943 23.9581 73.6841 22.9261C72.6885 21.8797 71.466 21.3565 70.0165 21.3565C68.5671 21.3565 67.3372 21.8797 66.327 22.9261C65.3314 23.9581 64.8336 25.1935 64.8336 26.6323C64.8336 28.0712 65.3314 29.3066 66.327 30.3385C67.3372 31.3559 68.5671 31.8646 70.0165 31.8646H75.1994Z" fill="white"/>
<path d="M98.4055 26.6323V35.331C97.3953 35.331 96.5242 34.9749 95.7921 34.2627C95.0747 33.536 94.716 32.6712 94.716 31.6684V26.6323C94.716 25.1935 94.2109 23.9581 93.2007 22.9261C92.2051 21.8797 90.9826 21.3565 89.5331 21.3565C88.0836 21.3565 86.8538 21.8797 85.8436 22.9261C84.8333 23.9581 84.3282 25.1935 84.3282 26.6323V31.6684C84.3282 32.6858 83.9695 33.5505 83.2521 34.2627C82.5347 34.9749 81.6635 35.331 80.6387 35.331V26.6323C80.6387 24.2197 81.5098 22.1631 83.2521 20.4626C85.009 18.7476 87.1027 17.8901 89.5331 17.8901C90.9093 17.8901 92.2124 18.1953 93.4422 18.8057C94.6721 19.4016 95.7189 20.2373 96.5827 21.3129C97.4173 20.2519 98.4568 19.4162 99.7013 18.8057C100.946 18.1953 102.249 17.8901 103.61 17.8901C106.041 17.8901 108.127 18.7476 109.869 20.4626C111.612 22.1631 112.483 24.2197 112.483 26.6323V35.331C111.473 35.331 110.602 34.9749 109.869 34.2627C109.152 33.536 108.793 32.6712 108.793 31.6684V26.6323C108.793 25.1935 108.288 23.9581 107.278 22.9261C106.282 21.8797 105.06 21.3565 103.61 21.3565C102.161 21.3565 100.931 21.8797 99.9209 22.9261C98.9107 23.9581 98.4055 25.1935 98.4055 26.6323Z" fill="white"/>
<path d="M122.57 24.7138C122.57 22.8244 123.251 21.2184 124.613 19.8958C125.989 18.5587 127.636 17.8901 129.554 17.8901H134.605C134.605 18.8639 134.261 19.685 133.573 20.3536C132.885 21.0222 132.05 21.3565 131.069 21.3565H130.301C129.173 21.3565 128.207 21.7634 127.402 22.5773C126.611 23.3767 126.216 24.3432 126.216 25.4769V28.5072C126.216 30.3967 125.535 32.0099 124.173 33.3471C122.812 34.6697 121.172 35.331 119.254 35.331H114.203C114.203 34.3717 114.54 33.5578 115.213 32.8892C115.901 32.2061 116.729 31.8646 117.695 31.8646H118.485C119.627 31.8646 120.594 31.4649 121.384 30.6655C122.175 29.8516 122.57 28.8778 122.57 27.7442V24.7138Z" fill="white"/>
<path d="M112.93 3.95383C113.845 3.95383 114.623 4.28993 115.263 4.96213C115.876 5.62525 116.183 6.41554 116.183 7.333C116.183 8.24138 115.876 9.02713 115.263 9.69025C114.623 10.3624 113.845 10.6985 112.93 10.6985H110.267V12.5108H108.112V3.95383H112.93ZM112.93 8.55932C113.241 8.55932 113.502 8.43214 113.712 8.1778C113.923 7.92345 114.028 7.64185 114.028 7.333C114.028 7.01507 113.923 6.72893 113.712 6.47459C113.502 6.22024 113.241 6.09307 112.93 6.09307H110.267V8.55932H112.93Z" fill="url(#paint0_linear_3034_97937)"/>
<path d="M121.34 3.69495C122.584 3.69495 123.636 4.14459 124.497 5.04389C125.366 5.9341 125.801 7.00145 125.801 8.24592C125.801 9.48132 125.366 10.5487 124.497 11.448C123.636 12.3473 122.584 12.7969 121.34 12.7969C120.095 12.7969 119.038 12.3473 118.169 11.448C117.3 10.5487 116.865 9.48132 116.865 8.24592C116.865 7.00145 117.3 5.9341 118.169 5.04389C119.038 4.14459 120.095 3.69495 121.34 3.69495ZM121.34 10.644C121.98 10.644 122.525 10.4079 122.973 9.93551C123.421 9.45407 123.646 8.89087 123.646 8.24592C123.646 7.59189 123.421 7.0287 122.973 6.55634C122.525 6.0749 121.98 5.83418 121.34 5.83418C120.69 5.83418 120.141 6.0749 119.693 6.55634C119.244 7.0287 119.02 7.59189 119.02 8.24592C119.02 8.89087 119.244 9.45407 119.693 9.93551C120.141 10.4079 120.69 10.644 121.34 10.644Z" fill="url(#paint1_linear_3034_97937)"/>
<path d="M128.672 6.47459C128.672 6.89244 128.814 7.10137 129.097 7.10137H132.144C132.867 7.10137 133.48 7.35571 133.984 7.86441C134.496 8.3731 134.752 8.98625 134.752 9.70387V9.89463C134.752 10.6123 134.496 11.2254 133.984 11.7341C133.48 12.2428 132.867 12.4971 132.144 12.4971H127.148V10.3307H132.144C132.263 10.3307 132.364 10.2898 132.446 10.208C132.538 10.1172 132.584 10.0127 132.584 9.89463C132.584 9.47678 132.437 9.26785 132.144 9.26785H129.097C128.383 9.26785 127.77 9.0135 127.258 8.50481C126.745 7.99612 126.489 7.38296 126.489 6.66534V6.47459C126.489 5.75697 126.745 5.14381 127.258 4.63512C127.77 4.12643 128.383 3.87208 129.097 3.87208H134.107V6.03856H129.097C128.987 6.03856 128.887 6.08398 128.795 6.17482C128.713 6.25657 128.672 6.3565 128.672 6.47459Z" fill="url(#paint2_linear_3034_97937)"/>
<defs>
<linearGradient id="paint0_linear_3034_97937" x1="34.3433" y1="19.513" x2="134.752" y2="19.513" gradientUnits="userSpaceOnUse">
<stop offset="0.74521" stop-color="#0D76E1"/>
<stop offset="1" stop-color="#E1780D"/>
</linearGradient>
<linearGradient id="paint1_linear_3034_97937" x1="34.3433" y1="19.513" x2="134.752" y2="19.513" gradientUnits="userSpaceOnUse">
<stop offset="0.74521" stop-color="#0D76E1"/>
<stop offset="1" stop-color="#E1780D"/>
</linearGradient>
<linearGradient id="paint2_linear_3034_97937" x1="34.3433" y1="19.513" x2="134.752" y2="19.513" gradientUnits="userSpaceOnUse">
<stop offset="0.74521" stop-color="#0D76E1"/>
<stop offset="1" stop-color="#E1780D"/>
</linearGradient>
</defs>
</svg>
