<svg width="30" height="33" viewBox="0 0 30 33" fill="none" xmlns="http://www.w3.org/2000/svg">
<path d="M2.13488 12.0061C2.49107 8.67053 5.30553 6.14062 8.66004 6.14062H20.4784C23.8275 6.14062 26.6393 8.66263 27.0021 11.992L27.5009 16.5695C28.3392 24.263 22.3132 30.9813 14.5742 30.9813C6.84642 30.9813 0.824021 24.2815 1.64459 16.5974L2.13488 12.0061Z" fill="#0D76E1"/>
<path d="M1.05446 22.5479C1.53969 17.9683 5.40252 14.4932 10.0077 14.4932H19.2029C23.8187 14.4932 27.6868 17.9839 28.159 22.5755C28.705 27.8842 24.5396 32.4999 19.2029 32.4999H10.0077C4.65995 32.4999 0.490995 27.8659 1.05446 22.5479Z" fill="#FFA80B"/>
<path d="M20.6644 7.87622L20.6644 6.683C20.6644 3.2682 17.8961 0.49996 14.4813 0.499959C11.0665 0.499959 8.29827 3.2682 8.29827 6.683L8.29827 7.87622" stroke="#0D76E1" stroke-linecap="round"/>
<path d="M11.6656 23.5366V30.8944H19.1341C21.1872 30.8944 22.9452 30.1813 24.4082 28.7553C25.8834 27.3169 26.621 25.5773 26.621 23.5366C26.621 21.4958 25.8834 19.7562 24.4082 18.3178C22.9329 16.8672 21.1749 16.1418 19.1341 16.1418C17.0934 16.1418 15.3353 16.8672 13.8601 18.3178C12.3971 19.7562 11.6656 21.4958 11.6656 23.5366ZM14.7821 27.9623V23.5366C14.7821 22.3195 15.2001 21.2745 16.0361 20.4016C16.8844 19.5165 17.917 19.0739 19.1341 19.0739C20.3512 19.0739 21.3777 19.5165 22.2137 20.4016C23.062 21.2745 23.4861 22.3195 23.4861 23.5366C23.4861 24.7536 23.062 25.7986 22.2137 26.6715C21.3777 27.532 20.3512 27.9623 19.1341 27.9623H14.7821Z" fill="white"/>
<path d="M21.5193 8.41992L19.9051 8.41992" stroke="white" stroke-width="0.5" stroke-linecap="round"/>
<path d="M9.15308 8.41992L7.53892 8.41992" stroke="white" stroke-width="0.5" stroke-linecap="round"/>
</svg>
