<svg width="100" height="80" viewBox="0 0 100 80" fill="none" xmlns="http://www.w3.org/2000/svg">
<path d="M21.3115 5.05263C21.3115 2.26214 23.5134 0 26.2295 0H42.6229C45.3391 0 47.541 2.26214 47.541 5.05263V7.57895C47.541 10.3694 45.3391 12.6316 42.6229 12.6316H26.2295C23.5134 12.6316 21.3115 10.3694 21.3115 7.57895V5.05263Z" fill="#C3DBFA"/>
<path d="M52.459 5.05263C52.459 2.26214 54.6609 0 57.377 0H73.7705C76.4866 0 78.6885 2.26214 78.6885 5.05263V7.57895C78.6885 10.3694 76.4866 12.6316 73.7705 12.6316H57.377C54.6609 12.6316 52.459 10.3694 52.459 7.57895V5.05263Z" fill="#C3DBFA"/>
<path d="M21.3115 72.4211C21.3115 69.6306 23.5134 67.3684 26.2295 67.3684H42.6229C45.3391 67.3684 47.541 69.6306 47.541 72.4211V74.9474C47.541 77.7379 45.3391 80 42.6229 80H26.2295C23.5134 80 21.3115 77.7379 21.3115 74.9474V72.4211Z" fill="#C3DBFA"/>
<path d="M52.459 72.4211C52.459 69.6306 54.6609 67.3684 57.377 67.3684H73.7705C76.4866 67.3684 78.6885 69.6306 78.6885 72.4211V74.9474C78.6885 77.7379 76.4866 80 73.7705 80H57.377C54.6609 80 52.459 77.7379 52.459 74.9474V72.4211Z" fill="#C3DBFA"/>
<path d="M7.37705 53.4737C10.0932 53.4737 12.2951 51.2115 12.2951 48.4211V31.5789C12.2951 28.7885 10.0932 26.5263 7.37705 26.5263H4.91803C2.20188 26.5263 0 28.7885 0 31.5789V48.4211C0 51.2115 2.20188 53.4737 4.91803 53.4737H7.37705Z" fill="#C3DBFA"/>
<path d="M14.7541 19.3684C14.7541 16.5779 16.956 14.3158 19.6721 14.3158H80.3279C83.044 14.3158 85.2459 16.5779 85.2459 19.3684V60.6316C85.2459 63.4221 83.044 65.6842 80.3279 65.6842H19.6721C16.956 65.6842 14.7541 63.4221 14.7541 60.6316V19.3684Z" fill="white"/>
<path d="M95.082 53.4737C97.7981 53.4737 100 51.2115 100 48.4211V31.5789C100 28.7885 97.7981 26.5263 95.082 26.5263H92.6229C89.9068 26.5263 87.7049 28.7885 87.7049 31.5789V48.4211C87.7049 51.2115 89.9068 53.4737 92.6229 53.4737H95.082Z" fill="#C3DBFA"/>
<path d="M26.2295 67.8682H42.623C45.0503 67.8682 47.0409 69.8938 47.041 72.4209V74.9473C47.041 77.4744 45.0504 79.4999 42.623 79.5H26.2295C23.8021 79.5 21.8115 77.4744 21.8115 74.9473V72.4209C21.8116 69.8938 23.8022 67.8682 26.2295 67.8682ZM57.377 67.8682H73.7705C76.1978 67.8682 78.1884 69.8938 78.1885 72.4209V74.9473C78.1885 77.4744 76.1979 79.5 73.7705 79.5H57.377C54.9496 79.4999 52.959 77.4744 52.959 74.9473V72.4209C52.9591 69.8938 54.9497 67.8682 57.377 67.8682ZM19.6719 14.8154H80.3281C82.7553 14.8156 84.746 16.8412 84.7461 19.3682V60.6318C84.746 63.1588 82.7553 65.1844 80.3281 65.1846H19.6719C17.2447 65.1844 15.254 63.1588 15.2539 60.6318V19.3682C15.254 16.8412 17.2447 14.8156 19.6719 14.8154ZM4.91797 27.0264H7.37695C9.80432 27.0264 11.7949 29.0519 11.7949 31.5791V48.4209C11.7949 50.9481 9.80433 52.9736 7.37695 52.9736H4.91797C2.49063 52.9736 0.5 50.948 0.5 48.4209V31.5791C0.5 29.052 2.49063 27.0264 4.91797 27.0264ZM92.623 27.0264H95.082C97.5094 27.0264 99.5 29.052 99.5 31.5791V48.4209C99.5 50.948 97.5094 52.9736 95.082 52.9736H92.623C90.1957 52.9736 88.2051 50.9481 88.2051 48.4209V31.5791C88.2051 29.0519 90.1957 27.0264 92.623 27.0264ZM26.2295 0.5H42.623C45.0504 0.500055 47.041 2.52561 47.041 5.05273V7.5791C47.0409 10.1062 45.0503 12.1318 42.623 12.1318H26.2295C23.8022 12.1318 21.8116 10.1062 21.8115 7.5791V5.05273C21.8115 2.52558 23.8021 0.500008 26.2295 0.5ZM57.377 0.5H73.7705C76.1979 0.500008 78.1885 2.52558 78.1885 5.05273V7.5791C78.1884 10.1062 76.1978 12.1318 73.7705 12.1318H57.377C54.9497 12.1318 52.9591 10.1062 52.959 7.5791V5.05273C52.959 2.52561 54.9496 0.500053 57.377 0.5Z" stroke="#EFF4FA"/>
</svg>
