<svg width="115" height="81" viewBox="0 0 115 81" fill="none" xmlns="http://www.w3.org/2000/svg">
<path d="M41 5.11579C41 2.29042 43.6863 0 47 0H67C70.3137 0 73 2.29042 73 5.11579V7.67368C73 10.4991 70.3137 12.7895 67 12.7895H47C43.6863 12.7895 41 10.4991 41 7.67368V5.11579Z" fill="#C4DBE3"/>
<path d="M41 73.3263C41 70.5009 43.6863 68.2105 47 68.2105H67C70.3137 68.2105 73 70.5009 73 73.3263V75.8842C73 78.7096 70.3137 81 67 81H47C43.6863 81 41 78.7096 41 75.8842V73.3263Z" fill="#C4DBE3"/>
<path d="M18 23.0211C18 18.3121 22.4772 14.4947 28 14.4947H86C91.5229 14.4947 96 18.3121 96 23.0211V57.9789C96 62.6879 91.5229 66.5053 86 66.5053H28C22.4772 66.5053 18 62.6879 18 57.9789V23.0211Z" fill="white"/>
<path d="M6 56.2737C2.68629 56.2737 0 53.9833 0 51.1579V34.1053C0 31.2799 2.68629 28.9895 6 28.9895H9C12.3137 28.9895 15 31.2799 15 34.1053V51.1579C15 53.9833 12.3137 56.2737 9 56.2737H6Z" fill="#C4DBE3"/>
<path d="M106 56.2737C102.686 56.2737 100 53.9833 100 51.1579V34.1053C100 31.2799 102.686 28.9895 106 28.9895H109C112.314 28.9895 115 31.2799 115 34.1053V51.1579C115 53.9833 112.314 56.2737 109 56.2737H106Z" fill="#C4DBE3"/>
<path d="M47 68.7109H67C70.1152 68.7109 72.4999 70.8488 72.5 73.3262V75.8838C72.5 78.3612 70.1153 80.5 67 80.5H47C43.8847 80.5 41.5 78.3612 41.5 75.8838V73.3262C41.5001 70.8488 43.8848 68.7109 47 68.7109ZM28 14.9951H86C91.3244 14.9951 95.5 18.6605 95.5 23.0215V57.9785C95.5 62.3395 91.3244 66.0049 86 66.0049H28C22.6756 66.0049 18.5 62.3395 18.5 57.9785V23.0215C18.5 18.6605 22.6756 14.9951 28 14.9951ZM6 29.4893H9C12.1153 29.4893 14.5 31.628 14.5 34.1055V51.1582C14.4998 53.6355 12.1152 55.7734 9 55.7734H6C2.88483 55.7734 0.500198 53.6355 0.5 51.1582V34.1055C0.5 31.628 2.88471 29.4893 6 29.4893ZM106 29.4893H109C112.115 29.4893 114.5 31.628 114.5 34.1055V51.1582C114.5 53.6355 112.115 55.7734 109 55.7734H106C102.885 55.7734 100.5 53.6355 100.5 51.1582V34.1055C100.5 31.628 102.885 29.4893 106 29.4893ZM47 0.5H67C70.1153 0.5 72.5 2.63877 72.5 5.11621V7.67383C72.4999 10.1512 70.1152 12.2891 67 12.2891H47C43.8848 12.2891 41.5001 10.1512 41.5 7.67383V5.11621C41.5 2.63877 43.8847 0.5 47 0.5Z" stroke="#EFF4FA"/>
</svg>
