<svg width="120" height="80" viewBox="0 0 120 80" fill="none" xmlns="http://www.w3.org/2000/svg">
<path d="M35.1148 11.1803C35.1148 8.8716 36.9864 7 39.2951 7H53.2295C55.5382 7 57.4098 8.8716 57.4098 11.1803V13.2705C57.4098 15.5792 55.5382 17.4508 53.2295 17.4508H39.2951C36.9864 17.4508 35.1148 15.5792 35.1148 13.2705V11.1803Z" fill="#88B6F3"/>
<path d="M61.5902 11.1803C61.5902 8.8716 63.4618 7 65.7705 7H79.7049C82.0136 7 83.8852 8.8716 83.8852 11.1803V13.2705C83.8852 15.5792 82.0136 17.4508 79.7049 17.4508H65.7705C63.4618 17.4508 61.5902 15.5792 61.5902 13.2705V11.1803Z" fill="#88B6F3"/>
<path d="M35.1148 66.918C35.1148 64.6093 36.9864 62.7377 39.2951 62.7377H53.2295C55.5382 62.7377 57.4098 64.6093 57.4098 66.918V69.0082C57.4098 71.3169 55.5382 73.1885 53.2295 73.1885H39.2951C36.9864 73.1885 35.1148 71.3169 35.1148 69.0082V66.918Z" fill="#88B6F3"/>
<path d="M61.5902 66.918C61.5902 64.6093 63.4618 62.7377 65.7705 62.7377H79.7049C82.0136 62.7377 83.8852 64.6093 83.8852 66.918V69.0082C83.8852 71.3169 82.0136 73.1885 79.7049 73.1885H65.7705C63.4618 73.1885 61.5902 71.3169 61.5902 69.0082V66.918Z" fill="#88B6F3"/>
<path d="M23.2705 51.2418C25.5792 51.2418 27.4508 49.3702 27.4508 47.0615V33.127C27.4508 30.8183 25.5792 28.9467 23.2705 28.9467H21.1803C18.8716 28.9467 17 30.8183 17 33.127V47.0615C17 49.3702 18.8716 51.2418 21.1803 51.2418H23.2705Z" fill="#88B6F3"/>
<path d="M29.541 23.0246C29.541 20.7159 31.4126 18.8443 33.7213 18.8443H85.2787C87.5874 18.8443 89.459 20.7159 89.459 23.0246V57.1639C89.459 59.4727 87.5874 61.3443 85.2787 61.3443H33.7213C31.4126 61.3443 29.541 59.4727 29.541 57.1639V23.0246Z" fill="white"/>
<path d="M97.8197 51.2418C100.128 51.2418 102 49.3702 102 47.0615V33.127C102 30.8183 100.128 28.9467 97.8197 28.9467H95.7295C93.4208 28.9467 91.5492 30.8183 91.5492 33.127V47.0615C91.5492 49.3702 93.4208 51.2418 95.7295 51.2418H97.8197Z" fill="#88B6F3"/>
<path d="M39.2949 63.2373H53.2295C55.2621 63.2373 56.9101 64.8854 56.9102 66.918V69.0078C56.9102 71.0404 55.2621 72.6885 53.2295 72.6885H39.2949C37.2624 72.6884 35.6152 71.0403 35.6152 69.0078V66.918C35.6153 64.8855 37.2624 63.2374 39.2949 63.2373ZM65.7705 63.2373H79.7051C81.7376 63.2374 83.3847 64.8855 83.3848 66.918V69.0078C83.3848 71.0403 81.7376 72.6884 79.7051 72.6885H65.7705C63.7379 72.6885 62.0898 71.0404 62.0898 69.0078V66.918C62.0899 64.8854 63.7379 63.2373 65.7705 63.2373ZM33.7217 19.3447H85.2783C87.3109 19.3447 88.9589 20.9919 88.959 23.0244V57.1641C88.9589 59.1966 87.3109 60.8447 85.2783 60.8447H33.7217C31.6891 60.8447 30.0411 59.1966 30.041 57.1641V23.0244C30.0411 20.9919 31.6891 19.3447 33.7217 19.3447ZM21.1807 29.4463H23.2705C25.3031 29.4463 26.9511 31.0944 26.9512 33.127V47.0615C26.9511 49.0941 25.3031 50.7422 23.2705 50.7422H21.1807C19.1481 50.7422 17.5 49.0941 17.5 47.0615V33.127C17.5001 31.0944 19.1481 29.4463 21.1807 29.4463ZM95.7295 29.4463H97.8193C99.8519 29.4463 101.5 31.0944 101.5 33.127V47.0615C101.5 49.0941 99.8519 50.7422 97.8193 50.7422H95.7295C93.6969 50.7422 92.0489 49.0941 92.0488 47.0615V33.127C92.0489 31.0944 93.6969 29.4463 95.7295 29.4463ZM39.2949 7.5H53.2295C55.2621 7.5 56.9102 9.14808 56.9102 11.1807V13.2705C56.9101 15.3031 55.2621 16.9512 53.2295 16.9512H39.2949C37.2624 16.9511 35.6152 15.303 35.6152 13.2705V11.1807C35.6152 9.14813 37.2624 7.50009 39.2949 7.5ZM65.7705 7.5H79.7051C81.7376 7.50009 83.3848 9.14813 83.3848 11.1807V13.2705C83.3848 15.303 81.7376 16.9511 79.7051 16.9512H65.7705C63.7379 16.9512 62.0899 15.3031 62.0898 13.2705V11.1807C62.0898 9.14808 63.7379 7.5 65.7705 7.5Z" stroke="#EFF4FA"/>
</svg>
