<svg width="130" height="60" viewBox="0 0 130 60" fill="none" xmlns="http://www.w3.org/2000/svg">
<path d="M17.2059 3.78116C17.2059 1.69288 18.9177 0 21.0294 0H33.7745C35.8862 0 37.598 1.69288 37.598 3.78116V5.67174C37.598 7.76002 35.8862 9.45291 33.7745 9.45291H21.0294C18.9177 9.45291 17.2059 7.76002 17.2059 5.67174V3.78116Z" fill="#C7AFDD"/>
<path d="M41.4216 3.78116C41.4216 1.69288 43.1334 0 45.2451 0H57.9902C60.1019 0 61.8137 1.69288 61.8137 3.78116V5.67174C61.8137 7.76002 60.1019 9.45291 57.9902 9.45291H45.2451C43.1334 9.45291 41.4216 7.76002 41.4216 5.67174V3.78116Z" fill="#C7AFDD"/>
<path d="M65.6373 3.78116C65.6373 1.69288 67.3491 0 69.4608 0H82.2059C84.3176 0 86.0294 1.69288 86.0294 3.78116V5.67174C86.0294 7.76002 84.3176 9.45291 82.2059 9.45291H69.4608C67.3491 9.45291 65.6373 7.76002 65.6373 5.67174V3.78116Z" fill="#C7AFDD"/>
<path d="M89.8529 3.78116C89.8529 1.69288 91.5648 0 93.6765 0H106.422C108.533 0 110.245 1.69288 110.245 3.78116V5.67174C110.245 7.76002 108.533 9.45291 106.422 9.45291H93.6765C91.5648 9.45291 89.8529 7.76002 89.8529 5.67174V3.78116Z" fill="#C7AFDD"/>
<path d="M17.2059 54.1967C17.2059 52.1084 18.9177 50.4155 21.0294 50.4155H33.7745C35.8862 50.4155 37.598 52.1084 37.598 54.1967V56.0873C37.598 58.1755 35.8862 59.8684 33.7745 59.8684H21.0294C18.9177 59.8684 17.2059 58.1755 17.2059 56.0873V54.1967Z" fill="#C7AFDD"/>
<path d="M41.4216 54.1967C41.4216 52.1084 43.1334 50.4155 45.2451 50.4155H57.9902C60.1019 50.4155 61.8137 52.1084 61.8137 54.1967V56.0873C61.8137 58.1755 60.1019 59.8684 57.9902 59.8684H45.2451C43.1334 59.8684 41.4216 58.1755 41.4216 56.0873V54.1967Z" fill="#C7AFDD"/>
<path d="M65.6373 54.1967C65.6373 52.1084 67.3491 50.4155 69.4608 50.4155H82.2059C84.3176 50.4155 86.0294 52.1084 86.0294 54.1967V56.0873C86.0294 58.1755 84.3176 59.8684 82.2059 59.8684H69.4608C67.3491 59.8684 65.6373 58.1755 65.6373 56.0873V54.1967Z" fill="#C7AFDD"/>
<path d="M89.8529 54.1967C89.8529 52.1084 91.5648 50.4155 93.6765 50.4155H106.422C108.533 50.4155 110.245 52.1084 110.245 54.1967V56.0873C110.245 58.1755 108.533 59.8684 106.422 59.8684H93.6765C91.5648 59.8684 89.8529 58.1755 89.8529 56.0873V54.1967Z" fill="#C7AFDD"/>
<path d="M5.73529 40.0173C7.84697 40.0173 9.55882 38.3244 9.55882 36.2361V23.6323C9.55882 21.544 7.84697 19.8511 5.73529 19.8511H3.82353C1.71185 19.8511 0 21.544 0 23.6323V36.2361C0 38.3244 1.71185 40.0173 3.82353 40.0173H5.73529Z" fill="#C7AFDD"/>
<path d="M11.4706 14.4945C11.4706 12.4062 13.1824 10.7133 15.2941 10.7133H114.706C116.818 10.7133 118.529 12.4062 118.529 14.4945V45.374C118.529 47.4622 116.818 49.1551 114.706 49.1551H15.2941C13.1824 49.1551 11.4706 47.4622 11.4706 45.374V14.4945Z" fill="white"/>
<path d="M126.176 40.0173C128.288 40.0173 130 38.3244 130 36.2361V23.6323C130 21.544 128.288 19.8511 126.176 19.8511H124.265C122.153 19.8511 120.441 21.544 120.441 23.6323V36.2361C120.441 38.3244 122.153 40.0173 124.265 40.0173H126.176Z" fill="#C7AFDD"/>
<path d="M21.0293 50.915H33.7744C35.6151 50.915 37.0974 52.3896 37.0977 54.1963V56.0869C37.0977 57.8938 35.6152 59.3682 33.7744 59.3682H21.0293C19.1885 59.3681 17.7061 57.8938 17.7061 56.0869V54.1963C17.7063 52.3896 19.1887 50.9151 21.0293 50.915ZM45.2451 50.915H57.9902C59.8309 50.9151 61.3133 52.3896 61.3135 54.1963V56.0869C61.3135 57.8938 59.831 59.3681 57.9902 59.3682H45.2451C43.4043 59.3682 41.9219 57.8938 41.9219 56.0869V54.1963C41.9221 52.3896 43.4044 50.915 45.2451 50.915ZM69.4609 50.915H82.2061C84.0466 50.9151 85.5291 52.3896 85.5293 54.1963V56.0869C85.5293 57.8938 84.0468 59.3681 82.2061 59.3682H69.4609C67.6201 59.3682 66.1377 57.8938 66.1377 56.0869V54.1963C66.1379 52.3896 67.6203 50.915 69.4609 50.915ZM93.6768 50.915H106.422C108.262 50.9152 109.745 52.3897 109.745 54.1963V56.0869C109.745 57.8937 108.263 59.368 106.422 59.3682H93.6768C91.836 59.3682 90.3525 57.8938 90.3525 56.0869V54.1963C90.3527 52.3896 91.8361 50.915 93.6768 50.915ZM15.2939 11.2129H114.706C116.547 11.213 118.029 12.6874 118.029 14.4941V45.374C118.029 47.1808 116.547 48.6552 114.706 48.6553H15.2939C13.4532 48.6552 11.9707 47.1808 11.9707 45.374V14.4941C11.9709 12.6874 13.4533 11.213 15.2939 11.2129ZM3.82324 20.3516H5.73535C7.57598 20.3516 9.05836 21.8252 9.05859 23.6318V36.2363C9.0585 38.0431 7.57607 39.5175 5.73535 39.5176H3.82324C1.98263 39.5174 0.500098 38.0431 0.5 36.2363V23.6318L0.503906 23.4639C0.59261 21.7347 2.0401 20.3517 3.82324 20.3516ZM124.265 20.3516H126.177C128.017 20.3517 129.5 21.8252 129.5 23.6318V36.2363C129.5 38.0431 128.017 39.5174 126.177 39.5176H124.265C122.424 39.5175 120.942 38.0431 120.941 36.2363V23.6318C120.942 21.8252 122.424 20.3516 124.265 20.3516ZM21.0293 0.5H33.7744C35.6152 0.5 37.0977 1.97435 37.0977 3.78125V5.67188C37.0976 7.47871 35.6152 8.95312 33.7744 8.95312H21.0293C19.1886 8.95306 17.7061 7.47868 17.7061 5.67188V3.78125C17.7061 1.97439 19.1885 0.500061 21.0293 0.5ZM45.2451 0.5H57.9902C59.831 0.50002 61.3135 1.97436 61.3135 3.78125V5.67188C61.3134 7.4787 59.831 8.9531 57.9902 8.95312H45.2451C43.4044 8.95312 41.9219 7.47871 41.9219 5.67188V3.78125C41.9219 1.97435 43.4043 0.5 45.2451 0.5ZM69.4609 0.5H82.2061C84.0468 0.500094 85.5293 1.97441 85.5293 3.78125V5.67188C85.5292 7.47866 84.0467 8.95303 82.2061 8.95312H69.4609C67.6202 8.95312 66.1378 7.47871 66.1377 5.67188V3.78125C66.1377 1.97435 67.6201 0.5 69.4609 0.5ZM93.6768 0.5H106.422C108.263 0.500163 109.745 1.97445 109.745 3.78125V5.67188C109.745 7.47861 108.262 8.95296 106.422 8.95312H93.6768C91.836 8.95312 90.3526 7.47872 90.3525 5.67188V3.78125C90.3525 2.03084 91.7444 0.592125 93.5049 0.503906L93.6768 0.5Z" stroke="#EFF4FA"/>
</svg>
