<svg width="131" height="60" viewBox="0 0 131 60" fill="none" xmlns="http://www.w3.org/2000/svg">
<path d="M17.3382 3.78947C17.3382 1.6966 19.0633 0 21.1912 0H34.0343C36.1622 0 37.8873 1.69661 37.8873 3.78947V5.68421C37.8873 7.77708 36.1622 9.47368 34.0343 9.47368H21.1912C19.0633 9.47368 17.3382 7.77708 17.3382 5.68421V3.78947Z" fill="#C7AFDD"/>
<path d="M41.7402 3.78947C41.7402 1.6966 43.4652 0 45.5931 0H58.4363C60.5642 0 62.2892 1.69661 62.2892 3.78947V5.68421C62.2892 7.77708 60.5642 9.47368 58.4363 9.47368H45.5931C43.4652 9.47368 41.7402 7.77708 41.7402 5.68421V3.78947Z" fill="#C7AFDD"/>
<path d="M66.1422 3.78947C66.1422 1.6966 67.8672 0 69.9951 0H82.8382C84.9662 0 86.6912 1.69661 86.6912 3.78947V5.68421C86.6912 7.77708 84.9662 9.47368 82.8382 9.47368H69.9951C67.8672 9.47368 66.1422 7.77708 66.1422 5.68421V3.78947Z" fill="#C7AFDD"/>
<path d="M90.5441 3.78947C90.5441 1.6966 92.2691 0 94.3971 0H107.24C109.368 0 111.093 1.69661 111.093 3.78947V5.68421C111.093 7.77708 109.368 9.47368 107.24 9.47368H94.3971C92.2691 9.47368 90.5441 7.77708 90.5441 5.68421V3.78947Z" fill="#C7AFDD"/>
<path d="M17.3382 54.3158C17.3382 52.2229 19.0633 50.5263 21.1912 50.5263H34.0343C36.1622 50.5263 37.8873 52.2229 37.8873 54.3158V56.2105C37.8873 58.3034 36.1622 60 34.0343 60H21.1912C19.0633 60 17.3382 58.3034 17.3382 56.2105V54.3158Z" fill="#C7AFDD"/>
<path d="M41.7402 54.3158C41.7402 52.2229 43.4652 50.5263 45.5931 50.5263H58.4363C60.5642 50.5263 62.2892 52.2229 62.2892 54.3158V56.2105C62.2892 58.3034 60.5642 60 58.4363 60H45.5931C43.4652 60 41.7402 58.3034 41.7402 56.2105V54.3158Z" fill="#C7AFDD"/>
<path d="M66.1422 54.3158C66.1422 52.2229 67.8672 50.5263 69.9951 50.5263H82.8382C84.9662 50.5263 86.6912 52.2229 86.6912 54.3158V56.2105C86.6912 58.3034 84.9662 60 82.8382 60H69.9951C67.8672 60 66.1422 58.3034 66.1422 56.2105V54.3158Z" fill="#C7AFDD"/>
<path d="M90.5441 54.3158C90.5441 52.2229 92.2691 50.5263 94.3971 50.5263H107.24C109.368 50.5263 111.093 52.2229 111.093 54.3158V56.2105C111.093 58.3034 109.368 60 107.24 60H94.3971C92.2691 60 90.5441 58.3034 90.5441 56.2105V54.3158Z" fill="#C7AFDD"/>
<path d="M5.77941 40.1053C7.90733 40.1053 9.63235 38.4087 9.63235 36.3158V23.6842C9.63235 21.5913 7.90733 19.8947 5.77941 19.8947H3.85294C1.72502 19.8947 0 21.5913 0 23.6842V36.3158C0 38.4087 1.72502 40.1053 3.85294 40.1053H5.77941Z" fill="#C7AFDD"/>
<path d="M11.5588 14.5263C11.5588 12.4334 13.2838 10.7368 15.4118 10.7368H115.588C117.716 10.7368 119.441 12.4334 119.441 14.5263V45.4737C119.441 47.5666 117.716 49.2632 115.588 49.2632H15.4118C13.2838 49.2632 11.5588 47.5666 11.5588 45.4737V14.5263Z" fill="white"/>
<path d="M127.147 40.1053C129.275 40.1053 131 38.4087 131 36.3158V23.6842C131 21.5913 129.275 19.8947 127.147 19.8947H125.221C123.093 19.8947 121.368 21.5913 121.368 23.6842V36.3158C121.368 38.4087 123.093 40.1053 125.221 40.1053H127.147Z" fill="#C7AFDD"/>
<path d="M21.1914 51.0264H34.0342C35.8937 51.0264 37.3875 52.5067 37.3877 54.3154V56.2109C37.3875 58.0197 35.8937 59.5 34.0342 59.5H21.1914C19.3319 59.5 17.8381 58.0197 17.8379 56.2109V54.3154C17.8381 52.5067 19.3319 51.0264 21.1914 51.0264ZM45.5928 51.0264H58.4365C60.2959 51.0265 61.7889 52.5067 61.7891 54.3154V56.2109C61.7888 58.0196 60.2959 59.4999 58.4365 59.5H45.5928C43.7334 59.4998 42.2405 58.0196 42.2402 56.2109V54.3154C42.2404 52.5068 43.7334 51.0266 45.5928 51.0264ZM69.9951 51.0264H82.8379C84.6974 51.0264 86.1912 52.5067 86.1914 54.3154V56.2109C86.1912 58.0197 84.6974 59.5 82.8379 59.5H69.9951C68.1356 59.5 66.6428 58.0197 66.6426 56.2109V54.3154C66.6428 52.5067 68.1356 51.0264 69.9951 51.0264ZM94.3975 51.0264H107.24C109.1 51.0264 110.593 52.5067 110.593 54.3154V56.2109C110.593 58.0197 109.1 59.5 107.24 59.5H94.3975C92.538 59.5 91.0442 58.0197 91.0439 56.2109V54.3154C91.0441 52.5067 92.5379 51.0264 94.3975 51.0264ZM15.4121 11.2373H115.588C117.448 11.2373 118.941 12.7174 118.941 14.5264V45.4736C118.941 47.2826 117.448 48.7627 115.588 48.7627H15.4121C13.5525 48.7627 12.0586 47.2826 12.0586 45.4736V14.5264C12.0586 12.7174 13.5525 11.2373 15.4121 11.2373ZM3.85254 20.3945H5.7793C7.63894 20.3945 9.13281 21.8756 9.13281 23.6846V36.3154C9.13281 38.1244 7.63894 39.6055 5.7793 39.6055H3.85254C1.99309 39.6053 0.5 38.1242 0.5 36.3154V23.6846C0.5 21.8758 1.99309 20.3947 3.85254 20.3945ZM125.221 20.3945H127.147C129.007 20.3947 130.5 21.8758 130.5 23.6846V36.3154C130.5 38.1242 129.007 39.6053 127.147 39.6055H125.221C123.361 39.6055 121.867 38.1244 121.867 36.3154V23.6846C121.867 21.8756 123.361 20.3945 125.221 20.3945ZM21.1914 0.5H34.0342C35.8937 0.5 37.3875 1.98032 37.3877 3.78906V5.68457C37.3875 7.49334 35.8937 8.97363 34.0342 8.97363H21.1914C19.3319 8.97363 17.8381 7.49334 17.8379 5.68457V3.78906C17.8381 1.98032 19.3319 0.5 21.1914 0.5ZM45.5928 0.5H58.4365C60.2959 0.500134 61.7888 1.9804 61.7891 3.78906V5.68457C61.7889 7.49325 60.2959 8.9735 58.4365 8.97363H45.5928C43.7334 8.97344 42.2404 7.49322 42.2402 5.68457V3.78906C42.2405 2.03683 43.6418 0.592432 45.4199 0.503906L45.5928 0.5ZM69.9951 0.5H82.8379C84.6974 0.5 86.1912 1.98032 86.1914 3.78906V5.68457C86.1912 7.49334 84.6974 8.97363 82.8379 8.97363H69.9951C68.1356 8.97363 66.6428 7.49334 66.6426 5.68457V3.78906C66.6428 1.98032 68.1356 0.5 69.9951 0.5ZM94.3975 0.5H107.24C109.1 0.500024 110.593 1.98034 110.593 3.78906V5.68457C110.593 7.49332 109.1 8.97361 107.24 8.97363H94.3975C92.5379 8.97363 91.0441 7.49334 91.0439 5.68457V3.78906C91.0442 2.0369 92.4456 0.592535 94.2236 0.503906L94.3975 0.5Z" stroke="#EFF4FA"/>
</svg>
