<svg width="135" height="40" viewBox="0 0 135 40" fill="none" xmlns="http://www.w3.org/2000/svg">
<path d="M2.4017 14.9444C2.80242 11.1919 5.96868 8.3457 9.7425 8.3457H23.0382C26.8059 8.3457 29.9692 11.183 30.3773 14.9286L30.9384 20.0783C31.8816 28.7336 25.1024 36.2917 16.396 36.2917C7.70218 36.2917 0.926985 28.7544 1.85012 20.1097L2.4017 14.9444Z" fill="#0D76E1"/>
<path d="M1.18627 26.8039C1.73215 21.6518 6.07788 17.7422 11.2588 17.7422H21.6032C26.796 17.7422 31.1477 21.6693 31.6789 26.8349C32.2931 32.8072 27.607 38 21.6031 38H11.2588C5.24248 38 0.552369 32.7867 1.18627 26.8039Z" fill="#FFA80B"/>
<path d="M23.2474 10.2983L23.2474 8.95596C23.2474 5.11427 20.1331 1.99997 16.2915 1.99997C12.4498 1.99997 9.33552 5.11427 9.33552 8.95596L9.33552 10.2983" stroke="#0D76E1" stroke-linecap="round"/>
<path d="M13.1238 27.9158V36.1934H21.5259C23.8356 36.1934 25.8133 35.3912 27.4592 33.7869C29.1188 32.1687 29.9486 30.2117 29.9486 27.9158C29.9486 25.6199 29.1188 23.6629 27.4592 22.0447C25.7995 20.4127 23.8217 19.5967 21.5259 19.5967C19.23 19.5967 17.2522 20.4127 15.5926 22.0447C13.9468 23.6629 13.1238 25.6199 13.1238 27.9158ZM16.6299 32.8948V27.9158C16.6299 26.5466 17.1001 25.371 18.0406 24.389C18.9949 23.3932 20.1567 22.8953 21.5259 22.8953C22.8951 22.8953 24.0499 23.3932 24.9904 24.389C25.9447 25.371 26.4219 26.5466 26.4219 27.9158C26.4219 29.285 25.9447 30.4606 24.9904 31.4426C24.0499 32.4107 22.8951 32.8948 21.5259 32.8948H16.6299Z" fill="white"/>
<path d="M24.2092 10.9102L22.3932 10.9102" stroke="white" stroke-width="0.5" stroke-linecap="round"/>
<path d="M10.2972 10.9102L8.48125 10.9102" stroke="white" stroke-width="0.5" stroke-linecap="round"/>
<path d="M38.0327 26.5886C38.0327 25.1497 38.5379 23.9216 39.5481 22.9042C40.5583 21.8723 41.7882 21.3563 43.2376 21.3563H44.9287C45.895 21.3563 46.7149 21.0221 47.3883 20.3535C48.0765 19.6704 48.4205 18.8492 48.4205 17.89H43.2376C40.8072 17.89 38.7135 18.7402 36.9566 20.4407C35.2143 22.1266 34.3432 24.176 34.3432 26.5886V35.3308C35.3534 35.3308 36.2173 34.9748 36.9347 34.2626C37.6667 33.5359 38.0327 32.6711 38.0327 31.6683V26.5886Z" fill="#0B0D0E"/>
<path d="M54.7673 35.3308C52.3368 35.3308 50.2505 34.4879 48.5082 32.8019C46.7659 31.1014 45.8948 29.0449 45.8948 26.6322C45.8948 24.2196 46.7659 22.163 48.5082 20.4625C50.2505 18.7475 52.3368 17.89 54.7673 17.89H59.9721C59.9721 18.8492 59.6281 19.6704 58.9399 20.3535C58.2518 21.0221 57.4246 21.3563 56.4583 21.3563H54.7673C53.3324 21.3563 52.1099 21.8796 51.0997 22.926C50.0894 23.9725 49.5843 25.2079 49.5843 26.6322C49.5843 28.0565 50.0894 29.2847 51.0997 30.3166C52.1099 31.3485 53.3324 31.8645 54.7673 31.8645H56.4583C57.4246 31.8645 58.2518 32.206 58.9399 32.8891C59.6281 33.5577 59.9721 34.3716 59.9721 35.3308H54.7673ZM53.5374 24.8881H59.9721C59.9721 25.8474 59.6281 26.6613 58.9399 27.3298C58.2518 27.9984 57.4246 28.3327 56.4583 28.3327H53.5374C53.0543 28.3327 52.6443 28.1728 52.3076 27.8531C51.9708 27.5188 51.8024 27.1118 51.8024 26.6322C51.8024 26.1381 51.9635 25.7238 52.2856 25.3895C52.6223 25.0553 53.0396 24.8881 53.5374 24.8881Z" fill="#0B0D0E"/>
<path d="M78.9328 26.6322V35.3308H70.0165C67.586 35.3308 65.4924 34.4879 63.7355 32.8019C61.9932 31.1014 61.122 29.0449 61.122 26.6322C61.122 24.2196 61.9932 22.163 63.7355 20.4625C65.4924 18.7475 67.586 17.89 70.0165 17.89C72.4469 17.89 74.5405 18.7475 76.2975 20.4625C78.0544 22.163 78.9328 24.2196 78.9328 26.6322ZM75.1994 31.8645V26.6322C75.1994 25.1933 74.6943 23.9579 73.684 22.926C72.6884 21.8796 71.4659 21.3563 70.0165 21.3563C68.567 21.3563 67.3371 21.8796 66.3269 22.926C65.3313 23.9579 64.8335 25.1933 64.8335 26.6322C64.8335 28.0711 65.3313 29.3065 66.3269 30.3384C67.3371 31.3558 68.567 31.8645 70.0165 31.8645H75.1994Z" fill="#0B0D0E"/>
<path d="M98.4055 26.6322V35.3308C97.3953 35.3308 96.5241 34.9748 95.7921 34.2626C95.0747 33.5359 94.716 32.6711 94.716 31.6683V26.6322C94.716 25.1933 94.2108 23.9579 93.2006 22.926C92.205 21.8796 90.9825 21.3563 89.533 21.3563C88.0836 21.3563 86.8537 21.8796 85.8435 22.926C84.8333 23.9579 84.3282 25.1933 84.3282 26.6322V31.6683C84.3282 32.6856 83.9694 33.5504 83.252 34.2626C82.5346 34.9748 81.6635 35.3308 80.6386 35.3308V26.6322C80.6386 24.2196 81.5098 22.163 83.252 20.4625C85.009 18.7475 87.1026 17.89 89.533 17.89C90.9093 17.89 92.2123 18.1952 93.4422 18.8056C94.672 19.4015 95.7189 20.2372 96.5827 21.3127C97.4172 20.2518 98.4567 19.416 99.7012 18.8056C100.946 18.1952 102.249 17.89 103.61 17.89C106.041 17.89 108.127 18.7475 109.869 20.4625C111.612 22.163 112.483 24.2196 112.483 26.6322V35.3308C111.473 35.3308 110.601 34.9748 109.869 34.2626C109.152 33.5359 108.793 32.6711 108.793 31.6683V26.6322C108.793 25.1933 108.288 23.9579 107.278 22.926C106.282 21.8796 105.06 21.3563 103.61 21.3563C102.161 21.3563 100.931 21.8796 99.9208 22.926C98.9106 23.9579 98.4055 25.1933 98.4055 26.6322Z" fill="#0B0D0E"/>
<path d="M122.57 24.7137C122.57 22.8243 123.251 21.2183 124.613 19.8957C125.989 18.5585 127.636 17.89 129.554 17.89H134.605C134.605 18.8638 134.261 19.6849 133.573 20.3535C132.885 21.0221 132.05 21.3563 131.069 21.3563H130.301C129.173 21.3563 128.207 21.7633 127.402 22.5772C126.611 23.3766 126.216 24.3431 126.216 25.4768V28.5071C126.216 30.3965 125.535 32.0098 124.173 33.3469C122.812 34.6695 121.172 35.3308 119.254 35.3308H114.203C114.203 34.3716 114.54 33.5577 115.213 32.8891C115.901 32.206 116.728 31.8645 117.695 31.8645H118.485C119.627 31.8645 120.594 31.4648 121.384 30.6654C122.175 29.8515 122.57 28.8777 122.57 27.7441V24.7137Z" fill="#0B0D0E"/>
<path d="M112.93 3.95371C113.845 3.95371 114.623 4.28981 115.263 4.96201C115.876 5.62513 116.183 6.41542 116.183 7.33288C116.183 8.24126 115.876 9.02701 115.263 9.69012C114.623 10.3623 113.845 10.6984 112.93 10.6984H110.267V12.5106H108.112V3.95371H112.93ZM112.93 8.55919C113.241 8.55919 113.502 8.43202 113.712 8.17767C113.923 7.92333 114.028 7.64173 114.028 7.33288C114.028 7.01495 113.923 6.72881 113.712 6.47446C113.502 6.22012 113.241 6.09294 112.93 6.09294H110.267V8.55919H112.93Z" fill="url(#paint0_linear_2008_52049)"/>
<path d="M121.34 3.69482C122.584 3.69482 123.636 4.14447 124.497 5.04377C125.366 5.93398 125.801 7.00132 125.801 8.2458C125.801 9.4812 125.366 10.5485 124.497 11.4478C123.636 12.3471 122.584 12.7968 121.34 12.7968C120.095 12.7968 119.038 12.3471 118.169 11.4478C117.3 10.5485 116.865 9.4812 116.865 8.2458C116.865 7.00132 117.3 5.93398 118.169 5.04377C119.038 4.14447 120.095 3.69482 121.34 3.69482ZM121.34 10.6439C121.98 10.6439 122.525 10.4077 122.973 9.93539C123.421 9.45395 123.646 8.89075 123.646 8.2458C123.646 7.59177 123.421 7.02857 122.973 6.55622C122.525 6.07478 121.98 5.83406 121.34 5.83406C120.69 5.83406 120.141 6.07478 119.693 6.55622C119.244 7.02857 119.02 7.59177 119.02 8.2458C119.02 8.89075 119.244 9.45395 119.693 9.93539C120.141 10.4077 120.69 10.6439 121.34 10.6439Z" fill="url(#paint1_linear_2008_52049)"/>
<path d="M128.672 6.47446C128.672 6.89232 128.813 7.10124 129.097 7.10124H132.144C132.867 7.10124 133.48 7.35559 133.984 7.86428C134.496 8.37298 134.752 8.98613 134.752 9.70375V9.89451C134.752 10.6121 134.496 11.2253 133.984 11.734C133.48 12.2427 132.867 12.497 132.144 12.497H127.148V10.3305H132.144C132.263 10.3305 132.364 10.2897 132.446 10.2079C132.538 10.1171 132.584 10.0126 132.584 9.89451C132.584 9.47666 132.437 9.26773 132.144 9.26773H129.097C128.383 9.26773 127.77 9.01338 127.258 8.50469C126.745 7.996 126.489 7.38284 126.489 6.66522V6.47446C126.489 5.75684 126.745 5.14369 127.258 4.635C127.77 4.1263 128.383 3.87196 129.097 3.87196H134.107V6.03844H129.097C128.987 6.03844 128.887 6.08386 128.795 6.1747C128.713 6.25645 128.672 6.35637 128.672 6.47446Z" fill="url(#paint2_linear_2008_52049)"/>
<defs>
<linearGradient id="paint0_linear_2008_52049" x1="34.3432" y1="19.5128" x2="134.752" y2="19.5128" gradientUnits="userSpaceOnUse">
<stop offset="0.74521" stop-color="#0D76E1"/>
<stop offset="1" stop-color="#E1780D"/>
</linearGradient>
<linearGradient id="paint1_linear_2008_52049" x1="34.3432" y1="19.5128" x2="134.752" y2="19.5128" gradientUnits="userSpaceOnUse">
<stop offset="0.74521" stop-color="#0D76E1"/>
<stop offset="1" stop-color="#E1780D"/>
</linearGradient>
<linearGradient id="paint2_linear_2008_52049" x1="34.3432" y1="19.5128" x2="134.752" y2="19.5128" gradientUnits="userSpaceOnUse">
<stop offset="0.74521" stop-color="#0D76E1"/>
<stop offset="1" stop-color="#E1780D"/>
</linearGradient>
</defs>
</svg>
